<svg xmlns="http://www.w3.org/2000/svg" xmlns:xlink="http://www.w3.org/1999/xlink" width="500" zoomAndPan="magnify" viewBox="0 0 375 374.999991" height="500" preserveAspectRatio="xMidYMid meet" version="1.0"><defs><g/><clipPath id="734eddda3d"><path d="M 25.152344 25.152344 L 349.847656 25.152344 L 349.847656 349.847656 L 25.152344 349.847656 Z M 25.152344 25.152344 " clip-rule="nonzero"/></clipPath><clipPath id="da55245804"><path d="M 0.152344 0.152344 L 324.847656 0.152344 L 324.847656 324.847656 L 0.152344 324.847656 Z M 0.152344 0.152344 " clip-rule="nonzero"/></clipPath><clipPath id="681804b859"><rect x="0" width="325" y="0" height="325"/></clipPath><clipPath id="4f1f1ec9e1"><path d="M 115.15625 124.808594 L 261 124.808594 L 261 270 L 115.15625 270 Z M 115.15625 124.808594 " clip-rule="nonzero"/></clipPath><clipPath id="3914ee8790"><path d="M 120 127 L 265.15625 127 L 265.15625 271.808594 L 120 271.808594 Z M 120 127 " clip-rule="nonzero"/></clipPath></defs><rect x="-37.5" width="450" fill="#ffffff" y="-37.499999" height="449.999989" fill-opacity="1"/><rect x="-37.5" width="450" fill="#ffffff" y="-37.499999" height="449.999989" fill-opacity="1"/><g clip-path="url(#734eddda3d)"><g transform="matrix(1, 0, 0, 1, 25, 25)"><g clip-path="url(#681804b859)"><g clip-path="url(#da55245804)"><path fill="#f0efec" d="M 0.152344 0.152344 L 324.847656 0.152344 L 324.847656 324.847656 L 0.152344 324.847656 Z M 0.152344 0.152344 " fill-opacity="1" fill-rule="nonzero"/></g></g></g></g><g clip-path="url(#4f1f1ec9e1)"><path fill="#5d7466" d="M 187.582031 269.746094 C 147.648438 269.746094 115.15625 237.257812 115.15625 197.320312 C 115.15625 157.386719 147.648438 124.894531 187.582031 124.894531 C 227.519531 124.894531 260.007812 157.386719 260.007812 197.320312 C 260.007812 237.257812 227.519531 269.746094 187.582031 269.746094 Z M 187.582031 126.375 C 148.460938 126.375 116.636719 158.199219 116.636719 197.320312 C 116.636719 236.441406 148.460938 268.269531 187.582031 268.269531 C 226.703125 268.269531 258.53125 236.441406 258.53125 197.320312 C 258.53125 158.199219 226.703125 126.375 187.582031 126.375 Z M 187.582031 126.375 " fill-opacity="1" fill-rule="nonzero"/></g><g clip-path="url(#3914ee8790)"><path fill="#5d7466" d="M 192.703125 271.710938 L 192.292969 271.707031 C 191.886719 271.707031 191.558594 271.375 191.558594 270.964844 C 191.5625 270.558594 191.890625 270.230469 192.296875 270.230469 C 192.300781 270.230469 192.300781 270.230469 192.300781 270.230469 L 192.703125 270.230469 C 193.789062 270.230469 194.882812 270.207031 195.957031 270.160156 C 196.367188 270.128906 196.710938 270.457031 196.730469 270.863281 C 196.746094 271.273438 196.433594 271.617188 196.023438 271.636719 C 194.929688 271.683594 193.808594 271.710938 192.703125 271.710938 Z M 204.800781 270.691406 C 204.445312 270.691406 204.132812 270.4375 204.070312 270.078125 C 204.003906 269.675781 204.273438 269.292969 204.675781 269.226562 C 209.476562 268.410156 214.207031 267.089844 218.734375 265.304688 C 219.117188 265.15625 219.542969 265.339844 219.691406 265.71875 C 219.839844 266.101562 219.65625 266.53125 219.277344 266.679688 C 214.652344 268.503906 209.824219 269.851562 204.921875 270.683594 C 204.882812 270.691406 204.839844 270.691406 204.800781 270.691406 Z M 177.636719 270.125 C 177.585938 270.125 177.535156 270.117188 177.484375 270.109375 C 174.570312 269.484375 171.671875 268.671875 168.855469 267.691406 C 168.472656 267.558594 168.269531 267.136719 168.402344 266.75 C 168.539062 266.367188 168.957031 266.164062 169.34375 266.296875 C 172.097656 267.257812 174.941406 268.054688 177.792969 268.664062 C 178.191406 268.75 178.445312 269.140625 178.359375 269.539062 C 178.285156 269.886719 177.980469 270.125 177.636719 270.125 Z M 165.636719 266.425781 C 165.542969 266.425781 165.449219 266.40625 165.359375 266.371094 C 160.761719 264.496094 156.339844 262.132812 152.214844 259.34375 C 151.878906 259.117188 151.789062 258.65625 152.015625 258.320312 C 152.246094 257.980469 152.703125 257.890625 153.042969 258.117188 C 157.085938 260.847656 161.414062 263.164062 165.917969 265 C 166.292969 265.152344 166.476562 265.585938 166.320312 265.964844 C 166.207031 266.25 165.929688 266.425781 165.636719 266.425781 Z M 222.398438 265.289062 C 222.117188 265.289062 221.847656 265.128906 221.722656 264.859375 C 221.554688 264.484375 221.71875 264.046875 222.089844 263.878906 C 224.738281 262.671875 227.339844 261.285156 229.824219 259.757812 C 230.171875 259.542969 230.625 259.652344 230.839844 260 C 231.054688 260.347656 230.945312 260.804688 230.597656 261.015625 C 228.0625 262.574219 225.410156 263.992188 222.703125 265.222656 C 222.605469 265.269531 222.5 265.289062 222.398438 265.289062 Z M 145.605469 254.070312 C 145.433594 254.070312 145.261719 254.007812 145.121094 253.886719 C 144.191406 253.074219 143.265625 252.226562 142.371094 251.363281 C 142.082031 251.078125 142.074219 250.609375 142.355469 250.316406 C 142.640625 250.023438 143.109375 250.015625 143.402344 250.300781 C 144.277344 251.148438 145.183594 251.980469 146.09375 252.773438 C 146.402344 253.042969 146.433594 253.507812 146.164062 253.816406 C 146.019531 253.984375 145.8125 254.070312 145.605469 254.070312 Z M 241.914062 252.152344 C 241.714844 252.152344 241.523438 252.074219 241.375 251.917969 C 241.09375 251.625 241.109375 251.15625 241.40625 250.875 C 242.285156 250.042969 243.15625 249.175781 244 248.296875 C 244.28125 248.003906 244.746094 247.992188 245.042969 248.273438 C 245.335938 248.558594 245.347656 249.023438 245.066406 249.320312 C 244.207031 250.21875 243.320312 251.101562 242.421875 251.949219 C 242.277344 252.082031 242.09375 252.152344 241.914062 252.152344 Z M 250.25 242.777344 C 250.097656 242.777344 249.941406 242.730469 249.808594 242.632812 C 249.480469 242.386719 249.414062 241.925781 249.65625 241.597656 C 252.566406 237.6875 255.078125 233.464844 257.121094 229.054688 C 257.292969 228.683594 257.734375 228.519531 258.101562 228.691406 C 258.472656 228.863281 258.636719 229.304688 258.460938 229.671875 C 256.378906 234.179688 253.8125 238.488281 250.84375 242.480469 C 250.699219 242.675781 250.476562 242.777344 250.25 242.777344 Z M 133.386719 240.289062 C 133.148438 240.289062 132.917969 240.175781 132.773438 239.964844 C 131.101562 237.503906 129.566406 234.917969 128.210938 232.273438 C 128.023438 231.910156 128.167969 231.464844 128.53125 231.277344 C 128.890625 231.089844 129.339844 231.234375 129.523438 231.597656 C 130.851562 234.1875 132.359375 236.722656 133.996094 239.136719 C 134.226562 239.472656 134.136719 239.933594 133.800781 240.160156 C 133.675781 240.25 133.527344 240.289062 133.386719 240.289062 Z M 127.273438 229.351562 C 126.988281 229.351562 126.71875 229.1875 126.597656 228.914062 C 124.558594 224.378906 122.992188 219.617188 121.933594 214.761719 C 121.847656 214.363281 122.101562 213.96875 122.5 213.882812 C 122.90625 213.792969 123.292969 214.050781 123.378906 214.449219 C 124.414062 219.203125 125.949219 223.867188 127.945312 228.308594 C 128.113281 228.683594 127.945312 229.121094 127.574219 229.285156 C 127.476562 229.332031 127.371094 229.351562 127.273438 229.351562 Z M 259.257812 226.707031 C 259.167969 226.707031 259.074219 226.6875 258.984375 226.652344 C 258.605469 226.5 258.421875 226.070312 258.574219 225.691406 C 259.660156 222.980469 260.585938 220.179688 261.328125 217.363281 C 261.429688 216.96875 261.835938 216.730469 262.230469 216.835938 C 262.625 216.9375 262.859375 217.34375 262.753906 217.738281 C 262 220.613281 261.054688 223.476562 259.945312 226.242188 C 259.828125 226.53125 259.550781 226.707031 259.257812 226.707031 Z M 121.3125 206.585938 C 120.933594 206.585938 120.613281 206.300781 120.578125 205.914062 C 120.464844 204.683594 120.382812 203.433594 120.335938 202.195312 C 120.320312 201.785156 120.636719 201.441406 121.042969 201.425781 C 121.449219 201.402344 121.796875 201.726562 121.8125 202.132812 C 121.859375 203.351562 121.941406 204.578125 122.050781 205.78125 C 122.085938 206.191406 121.785156 206.546875 121.378906 206.585938 C 121.359375 206.585938 121.335938 206.585938 121.3125 206.585938 Z M 264.296875 203.714844 C 264.28125 203.714844 264.269531 203.714844 264.257812 203.714844 C 263.851562 203.695312 263.535156 203.347656 263.558594 202.9375 C 263.617188 201.734375 263.648438 200.503906 263.648438 199.285156 C 263.648438 198.875 263.980469 198.546875 264.390625 198.546875 C 264.796875 198.546875 265.128906 198.875 265.128906 199.285156 C 265.128906 200.53125 265.097656 201.785156 265.035156 203.015625 C 265.015625 203.410156 264.6875 203.714844 264.296875 203.714844 Z M 263.773438 190.589844 C 263.40625 190.589844 263.089844 190.316406 263.039062 189.945312 C 262.882812 188.738281 262.6875 187.523438 262.472656 186.335938 C 262.398438 185.933594 262.664062 185.546875 263.0625 185.476562 C 263.472656 185.398438 263.851562 185.667969 263.925781 186.066406 C 264.148438 187.28125 264.34375 188.519531 264.507812 189.753906 C 264.558594 190.15625 264.277344 190.527344 263.871094 190.582031 C 263.835938 190.585938 263.804688 190.589844 263.773438 190.589844 Z M 121.992188 188.183594 C 121.949219 188.183594 121.910156 188.179688 121.871094 188.171875 C 121.46875 188.105469 121.195312 187.726562 121.261719 187.324219 C 121.75 184.382812 122.429688 181.449219 123.277344 178.601562 C 123.390625 178.210938 123.804688 177.988281 124.195312 178.105469 C 124.585938 178.21875 124.808594 178.632812 124.691406 179.023438 C 123.863281 181.8125 123.199219 184.6875 122.71875 187.566406 C 122.660156 187.925781 122.347656 188.183594 121.992188 188.183594 Z M 261.054688 178.34375 C 260.738281 178.34375 260.449219 178.144531 260.347656 177.828125 C 258.878906 173.195312 256.917969 168.691406 254.523438 164.449219 C 254.320312 164.09375 254.445312 163.640625 254.800781 163.441406 C 255.160156 163.242188 255.609375 163.363281 255.808594 163.722656 C 258.253906 168.054688 260.257812 172.648438 261.757812 177.382812 C 261.882812 177.773438 261.664062 178.1875 261.277344 178.3125 C 261.203125 178.332031 261.128906 178.34375 261.054688 178.34375 Z M 125.128906 176.039062 C 125.046875 176.039062 124.960938 176.027344 124.878906 176 C 124.496094 175.863281 124.292969 175.4375 124.429688 175.054688 C 126.089844 170.378906 128.25 165.851562 130.84375 161.601562 C 131.054688 161.253906 131.511719 161.144531 131.859375 161.355469 C 132.207031 161.570312 132.316406 162.023438 132.105469 162.371094 C 129.5625 166.535156 127.449219 170.96875 125.824219 175.550781 C 125.714844 175.851562 125.429688 176.039062 125.128906 176.039062 Z M 253.269531 161.65625 C 253.023438 161.65625 252.785156 161.535156 252.644531 161.316406 C 251.085938 158.859375 249.355469 156.46875 247.5 154.21875 C 247.242188 153.902344 247.285156 153.4375 247.601562 153.179688 C 247.917969 152.917969 248.382812 152.964844 248.640625 153.28125 C 250.535156 155.578125 252.300781 158.015625 253.890625 160.523438 C 254.109375 160.867188 254.007812 161.324219 253.664062 161.542969 C 253.542969 161.621094 253.40625 161.65625 253.269531 161.65625 Z M 136.546875 155.460938 C 136.386719 155.460938 136.222656 155.410156 136.089844 155.300781 C 135.769531 155.046875 135.714844 154.582031 135.96875 154.261719 C 136.742188 153.292969 137.546875 152.328125 138.367188 151.398438 C 138.636719 151.09375 139.105469 151.066406 139.410156 151.335938 C 139.714844 151.605469 139.742188 152.070312 139.472656 152.378906 C 138.671875 153.289062 137.882812 154.230469 137.125 155.179688 C 136.980469 155.363281 136.765625 155.460938 136.546875 155.460938 Z M 237.582031 144.121094 C 237.417969 144.121094 237.253906 144.066406 237.117188 143.957031 C 236.175781 143.199219 235.195312 142.453125 234.207031 141.738281 C 233.878906 141.5 233.804688 141.039062 234.042969 140.707031 C 234.28125 140.378906 234.742188 140.300781 235.074219 140.542969 C 236.082031 141.269531 237.078125 142.03125 238.042969 142.804688 C 238.359375 143.0625 238.410156 143.527344 238.15625 143.84375 C 238.011719 144.027344 237.796875 144.121094 237.582031 144.121094 Z M 149.757812 142.621094 C 149.53125 142.621094 149.308594 142.519531 149.164062 142.328125 C 148.917969 142 148.984375 141.539062 149.3125 141.292969 C 151.695312 139.507812 154.210938 137.855469 156.789062 136.378906 C 157.144531 136.175781 157.59375 136.300781 157.796875 136.652344 C 158 137.007812 157.875 137.460938 157.523438 137.660156 C 154.996094 139.105469 152.53125 140.726562 150.199219 142.476562 C 150.066406 142.574219 149.910156 142.621094 149.757812 142.621094 Z M 227.148438 137.140625 C 227.03125 137.140625 226.910156 137.113281 226.796875 137.050781 C 222.523438 134.707031 218 132.800781 213.34375 131.386719 C 212.953125 131.269531 212.734375 130.855469 212.851562 130.464844 C 212.96875 130.074219 213.378906 129.855469 213.773438 129.972656 C 218.527344 131.414062 223.148438 133.363281 227.507812 135.753906 C 227.863281 135.953125 227.996094 136.402344 227.800781 136.757812 C 227.664062 137.003906 227.410156 137.140625 227.148438 137.140625 Z M 160.402344 136.007812 C 160.132812 136.007812 159.875 135.863281 159.742188 135.605469 C 159.558594 135.238281 159.703125 134.792969 160.070312 134.609375 C 164.507812 132.367188 169.191406 130.578125 173.992188 129.300781 C 174.386719 129.195312 174.789062 129.429688 174.894531 129.824219 C 175.003906 130.21875 174.765625 130.621094 174.375 130.726562 C 169.671875 131.980469 165.085938 133.730469 160.738281 135.929688 C 160.628906 135.984375 160.515625 136.007812 160.402344 136.007812 Z M 210 130.4375 C 209.941406 130.4375 209.878906 130.429688 209.820312 130.417969 C 206.996094 129.71875 204.09375 129.1875 201.195312 128.84375 C 200.789062 128.792969 200.503906 128.425781 200.550781 128.019531 C 200.597656 127.617188 200.960938 127.324219 201.371094 127.375 C 204.328125 127.726562 207.289062 128.269531 210.175781 128.984375 C 210.570312 129.082031 210.8125 129.480469 210.714844 129.878906 C 210.632812 130.214844 210.328125 130.4375 210 130.4375 Z M 182.867188 129.007812 C 182.503906 129.007812 182.1875 128.738281 182.136719 128.367188 C 182.082031 127.964844 182.363281 127.589844 182.765625 127.535156 C 183.996094 127.367188 185.246094 127.230469 186.476562 127.125 C 186.882812 127.082031 187.238281 127.390625 187.273438 127.796875 C 187.308594 128.203125 187.007812 128.5625 186.601562 128.597656 C 185.394531 128.699219 184.171875 128.835938 182.96875 129 C 182.933594 129.003906 182.898438 129.007812 182.867188 129.007812 Z M 182.867188 129.007812 " fill-opacity="1" fill-rule="nonzero"/></g><path fill="#5d7466" d="M 201.566406 268.375 C 201.425781 268.375 201.289062 268.335938 201.164062 268.257812 C 200.820312 268.035156 200.722656 267.578125 200.945312 267.234375 C 215.808594 244.34375 217.710938 214.675781 205.90625 189.8125 C 205.734375 189.445312 205.890625 189.003906 206.257812 188.828125 C 206.628906 188.65625 207.070312 188.8125 207.242188 189.179688 C 219.265625 214.503906 217.328125 244.71875 202.183594 268.039062 C 202.042969 268.257812 201.804688 268.375 201.566406 268.375 Z M 201.566406 268.375 " fill-opacity="1" fill-rule="nonzero"/><path fill="#5d7466" d="M 212.765625 265.191406 C 212.667969 265.191406 212.566406 265.171875 212.46875 265.128906 C 212.09375 264.960938 211.925781 264.527344 212.09375 264.152344 C 222.78125 240.011719 221.707031 211.835938 209.214844 188.785156 C 209.019531 188.425781 209.152344 187.976562 209.511719 187.785156 C 209.867188 187.589844 210.316406 187.722656 210.511719 188.082031 C 223.222656 211.53125 224.316406 240.191406 213.441406 264.753906 C 213.320312 265.027344 213.050781 265.191406 212.765625 265.191406 Z M 212.765625 265.191406 " fill-opacity="1" fill-rule="nonzero"/><path fill="#5d7466" d="M 206.007812 182.039062 C 205.839844 182.039062 205.675781 181.984375 205.542969 181.875 C 178.78125 160.183594 140.898438 177.605469 140.519531 177.785156 C 140.214844 177.925781 139.851562 177.847656 139.640625 177.589844 C 139.421875 177.335938 139.40625 176.964844 139.597656 176.691406 C 151.507812 159.683594 163.542969 151.636719 175.375 152.761719 C 183.382812 153.527344 191.339844 158.667969 198.390625 167.625 C 203.675781 174.34375 206.652344 180.933594 206.683594 181 C 206.820312 181.3125 206.726562 181.679688 206.457031 181.886719 C 206.324219 181.988281 206.164062 182.039062 206.007812 182.039062 Z M 172.652344 169.527344 C 182.824219 169.527344 193.96875 171.765625 203.902344 178.78125 C 200.273438 172.070312 189.941406 155.636719 175.230469 154.234375 C 164.464844 153.214844 153.394531 160.335938 142.320312 175.433594 C 147.242188 173.511719 159.082031 169.527344 172.652344 169.527344 Z M 172.652344 169.527344 " fill-opacity="1" fill-rule="nonzero"/><path fill="#5d7466" d="M 246.472656 200.988281 C 246.21875 200.988281 245.976562 200.859375 245.839844 200.632812 C 234.164062 181.230469 206.8125 183.507812 206.53125 183.53125 C 206.195312 183.566406 205.886719 183.363281 205.769531 183.050781 C 205.65625 182.738281 205.765625 182.382812 206.039062 182.191406 C 217.367188 174.242188 226.761719 171.9375 233.953125 175.351562 C 245.671875 180.910156 247.152344 199.410156 247.210938 200.195312 C 247.234375 200.539062 247.023438 200.851562 246.699219 200.953125 C 246.621094 200.976562 246.546875 200.988281 246.472656 200.988281 Z M 209.382812 181.960938 C 216.574219 181.960938 235.011719 183.390625 245.320312 197.207031 C 244.378906 191.730469 241.496094 180.558594 233.316406 176.683594 C 227.082031 173.726562 218.910156 175.503906 209.011719 181.964844 C 209.128906 181.960938 209.253906 181.960938 209.382812 181.960938 Z M 209.382812 181.960938 " fill-opacity="1" fill-rule="nonzero"/><path fill="#5d7466" d="M 166.5 200.988281 C 166.425781 200.988281 166.347656 200.976562 166.273438 200.953125 C 165.949219 200.851562 165.734375 200.539062 165.761719 200.195312 C 165.820312 199.414062 167.300781 180.910156 179.015625 175.351562 C 186.210938 171.9375 195.601562 174.238281 206.929688 182.191406 C 207.207031 182.382812 207.316406 182.734375 207.199219 183.050781 C 207.085938 183.363281 206.777344 183.5625 206.4375 183.53125 C 206.164062 183.507812 178.808594 181.230469 167.132812 200.632812 C 166.996094 200.859375 166.753906 200.988281 166.5 200.988281 Z M 186.070312 175.296875 C 183.746094 175.296875 181.605469 175.757812 179.652344 176.683594 C 171.46875 180.566406 168.589844 191.734375 167.652344 197.207031 C 177.957031 183.394531 196.394531 181.960938 203.589844 181.960938 C 203.71875 181.960938 203.84375 181.960938 203.960938 181.964844 C 197.160156 177.523438 191.171875 175.296875 186.070312 175.296875 Z M 186.070312 175.296875 " fill-opacity="1" fill-rule="nonzero"/><path fill="#5d7466" d="M 206.507812 182.546875 C 206.390625 182.546875 206.277344 182.519531 206.167969 182.464844 C 205.871094 182.308594 205.714844 181.976562 205.785156 181.648438 C 208.789062 168.136719 214.171875 160.101562 221.785156 157.769531 C 234.191406 153.976562 247.753906 166.632812 248.328125 167.175781 C 248.574219 167.410156 248.628906 167.785156 248.460938 168.082031 C 248.289062 168.378906 247.9375 168.519531 247.609375 168.421875 C 225.886719 161.964844 207.242188 182.101562 207.054688 182.308594 C 206.910156 182.464844 206.710938 182.546875 206.507812 182.546875 Z M 226.589844 158.550781 C 225.121094 158.550781 223.652344 158.742188 222.214844 159.183594 C 215.613281 161.207031 210.78125 168.03125 207.828125 179.476562 C 212.894531 174.78125 227.683594 162.9375 244.914062 166.242188 C 241.257812 163.402344 233.933594 158.550781 226.589844 158.550781 Z M 226.589844 158.550781 " fill-opacity="1" fill-rule="nonzero"/><path fill="#5d7466" d="M 205.53125 182.546875 C 205.507812 182.546875 205.480469 182.546875 205.453125 182.542969 C 205.121094 182.507812 204.855469 182.253906 204.800781 181.921875 C 204.757812 181.652344 200.21875 154.578125 178.535156 148.046875 C 178.210938 147.945312 177.992188 147.636719 178.011719 147.292969 C 178.03125 146.953125 178.285156 146.667969 178.621094 146.609375 C 179.394531 146.472656 197.6875 143.34375 205.96875 153.332031 C 211.046875 159.460938 211.132812 169.128906 206.222656 182.070312 C 206.113281 182.359375 205.835938 182.546875 205.53125 182.546875 Z M 181.984375 147.707031 C 198.195312 154.40625 204.050781 172.429688 205.710938 179.136719 C 209.527344 167.949219 209.234375 159.59375 204.832031 154.277344 C 199.058594 147.308594 187.523438 147.269531 181.984375 147.707031 Z M 181.984375 147.707031 " fill-opacity="1" fill-rule="nonzero"/><path fill="#5d7466" d="M 208.394531 175.703125 L 208.386719 175.703125 C 207.976562 175.703125 207.648438 175.375 207.648438 174.964844 C 207.648438 174.558594 207.976562 174.226562 208.386719 174.226562 C 208.792969 174.226562 209.128906 174.558594 209.128906 174.964844 C 209.128906 175.375 208.800781 175.703125 208.394531 175.703125 Z M 208.394531 175.703125 " fill-opacity="1" fill-rule="nonzero"/><path fill="#5d7466" d="M 207.792969 175.53125 L 207.785156 175.53125 C 207.378906 175.53125 207.046875 175.199219 207.046875 174.792969 C 207.046875 174.382812 207.378906 174.050781 207.785156 174.050781 C 208.195312 174.050781 208.53125 174.382812 208.53125 174.792969 C 208.53125 175.199219 208.203125 175.53125 207.792969 175.53125 Z M 207.792969 175.53125 " fill-opacity="1" fill-rule="nonzero"/><path fill="#5d7466" d="M 205.964844 190.265625 C 201.769531 190.265625 198.253906 187.128906 197.789062 182.96875 C 197.746094 182.5625 198.039062 182.199219 198.445312 182.152344 C 198.859375 182.109375 199.214844 182.398438 199.261719 182.804688 C 199.640625 186.214844 202.523438 188.789062 205.964844 188.789062 C 209.4375 188.789062 212.320312 186.1875 212.671875 182.738281 C 212.714844 182.332031 213.078125 182.042969 213.480469 182.074219 C 213.886719 182.117188 214.183594 182.480469 214.140625 182.886719 C 213.714844 187.09375 210.199219 190.265625 205.964844 190.265625 Z M 205.964844 190.265625 " fill-opacity="1" fill-rule="nonzero"/><g fill="#5d7466" fill-opacity="1"><g transform="translate(121.146933, 159.732437)"><g><path d="M 2.171875 -3.046875 C 1.921875 -2.671875 1.640625 -2.367188 1.328125 -2.140625 C 1.023438 -1.910156 0.707031 -1.75 0.375 -1.65625 C 0.0507812 -1.5625 -0.28125 -1.523438 -0.625 -1.546875 C -0.96875 -1.566406 -1.304688 -1.640625 -1.640625 -1.765625 C -1.984375 -1.898438 -2.3125 -2.070312 -2.625 -2.28125 C -2.9375 -2.488281 -3.210938 -2.722656 -3.453125 -2.984375 C -3.703125 -3.253906 -3.898438 -3.546875 -4.046875 -3.859375 C -4.191406 -4.171875 -4.285156 -4.492188 -4.328125 -4.828125 C -4.367188 -5.171875 -4.34375 -5.523438 -4.25 -5.890625 C -4.15625 -6.265625 -3.976562 -6.644531 -3.71875 -7.03125 C -3.457031 -7.40625 -3.15625 -7.707031 -2.8125 -7.9375 C -2.476562 -8.175781 -2.101562 -8.332031 -1.6875 -8.40625 C -1.28125 -8.488281 -0.847656 -8.488281 -0.390625 -8.40625 L -0.65625 -7.1875 C -0.957031 -7.289062 -1.234375 -7.316406 -1.484375 -7.265625 C -1.734375 -7.222656 -1.960938 -7.117188 -2.171875 -6.953125 C -2.378906 -6.796875 -2.570312 -6.59375 -2.75 -6.34375 C -2.945312 -6.039062 -3.066406 -5.75 -3.109375 -5.46875 C -3.160156 -5.1875 -3.144531 -4.910156 -3.0625 -4.640625 C -2.988281 -4.378906 -2.859375 -4.132812 -2.671875 -3.90625 C -2.484375 -3.6875 -2.257812 -3.488281 -2 -3.3125 C -1.707031 -3.113281 -1.414062 -2.96875 -1.125 -2.875 C -0.84375 -2.78125 -0.5625 -2.742188 -0.28125 -2.765625 C 0 -2.785156 0.265625 -2.867188 0.515625 -3.015625 C 0.765625 -3.171875 0.992188 -3.398438 1.203125 -3.703125 C 1.453125 -4.078125 1.578125 -4.441406 1.578125 -4.796875 C 1.585938 -5.160156 1.457031 -5.550781 1.1875 -5.96875 L 2.234375 -6.671875 C 2.484375 -6.273438 2.644531 -5.867188 2.71875 -5.453125 C 2.800781 -5.035156 2.796875 -4.625 2.703125 -4.21875 C 2.609375 -3.8125 2.429688 -3.421875 2.171875 -3.046875 Z M 2.171875 -3.046875 "/></g></g></g><g fill="#5d7466" fill-opacity="1"><g transform="translate(124.899593, 154.14781)"><g><path d="M 2.4375 -2.828125 C 2.144531 -2.472656 1.835938 -2.195312 1.515625 -2 C 1.191406 -1.800781 0.859375 -1.664062 0.515625 -1.59375 C 0.171875 -1.53125 -0.164062 -1.53125 -0.5 -1.59375 C -0.832031 -1.65625 -1.160156 -1.757812 -1.484375 -1.90625 C -1.816406 -2.0625 -2.128906 -2.257812 -2.421875 -2.5 C -2.710938 -2.726562 -2.960938 -2.988281 -3.171875 -3.28125 C -3.390625 -3.570312 -3.5625 -3.875 -3.6875 -4.1875 C -3.820312 -4.507812 -3.890625 -4.84375 -3.890625 -5.1875 C -3.890625 -5.539062 -3.820312 -5.894531 -3.6875 -6.25 C -3.5625 -6.601562 -3.351562 -6.957031 -3.0625 -7.3125 C -2.769531 -7.664062 -2.460938 -7.941406 -2.140625 -8.140625 C -1.828125 -8.347656 -1.5 -8.484375 -1.15625 -8.546875 C -0.820312 -8.609375 -0.484375 -8.613281 -0.140625 -8.5625 C 0.203125 -8.507812 0.535156 -8.398438 0.859375 -8.234375 C 1.191406 -8.078125 1.503906 -7.882812 1.796875 -7.65625 C 2.085938 -7.414062 2.335938 -7.15625 2.546875 -6.875 C 2.765625 -6.59375 2.929688 -6.285156 3.046875 -5.953125 C 3.171875 -5.628906 3.234375 -5.296875 3.234375 -4.953125 C 3.242188 -4.609375 3.1875 -4.253906 3.0625 -3.890625 C 2.9375 -3.535156 2.726562 -3.179688 2.4375 -2.828125 Z M 1.578125 -3.515625 C 1.804688 -3.796875 1.953125 -4.078125 2.015625 -4.359375 C 2.085938 -4.648438 2.082031 -4.925781 2 -5.1875 C 1.925781 -5.457031 1.796875 -5.710938 1.609375 -5.953125 C 1.421875 -6.203125 1.203125 -6.429688 0.953125 -6.640625 C 0.703125 -6.835938 0.441406 -7 0.171875 -7.125 C -0.0976562 -7.257812 -0.367188 -7.335938 -0.640625 -7.359375 C -0.921875 -7.378906 -1.195312 -7.332031 -1.46875 -7.21875 C -1.738281 -7.101562 -1.988281 -6.90625 -2.21875 -6.625 C -2.457031 -6.332031 -2.601562 -6.039062 -2.65625 -5.75 C -2.71875 -5.46875 -2.707031 -5.191406 -2.625 -4.921875 C -2.550781 -4.660156 -2.421875 -4.410156 -2.234375 -4.171875 C -2.054688 -3.929688 -1.84375 -3.710938 -1.59375 -3.515625 C -1.34375 -3.304688 -1.078125 -3.132812 -0.796875 -3 C -0.523438 -2.863281 -0.253906 -2.785156 0.015625 -2.765625 C 0.296875 -2.742188 0.566406 -2.789062 0.828125 -2.90625 C 1.085938 -3.019531 1.335938 -3.222656 1.578125 -3.515625 Z M 1.578125 -3.515625 "/></g></g></g><g fill="#5d7466" fill-opacity="1"><g transform="translate(129.443774, 148.568183)"><g><path d="M 2.671875 -2.609375 C 2.359375 -2.285156 2.03125 -2.039062 1.6875 -1.875 C 1.351562 -1.707031 1.015625 -1.601562 0.671875 -1.5625 C 0.328125 -1.519531 -0.0078125 -1.539062 -0.34375 -1.625 C -0.6875 -1.707031 -1.015625 -1.84375 -1.328125 -2.03125 C -1.640625 -2.21875 -1.925781 -2.441406 -2.1875 -2.703125 C -2.457031 -2.960938 -2.691406 -3.242188 -2.890625 -3.546875 C -3.085938 -3.859375 -3.226562 -4.179688 -3.3125 -4.515625 C -3.40625 -4.847656 -3.4375 -5.1875 -3.40625 -5.53125 C -3.382812 -5.875 -3.296875 -6.21875 -3.140625 -6.5625 C -2.984375 -6.90625 -2.742188 -7.238281 -2.421875 -7.5625 C -2.109375 -7.894531 -1.757812 -8.144531 -1.375 -8.3125 C -1 -8.488281 -0.597656 -8.578125 -0.171875 -8.578125 C 0.242188 -8.585938 0.664062 -8.507812 1.09375 -8.34375 L 0.625 -7.1875 C 0.34375 -7.351562 0.078125 -7.429688 -0.171875 -7.421875 C -0.429688 -7.421875 -0.675781 -7.359375 -0.90625 -7.234375 C -1.144531 -7.109375 -1.367188 -6.9375 -1.578125 -6.71875 C -1.828125 -6.457031 -2 -6.191406 -2.09375 -5.921875 C -2.195312 -5.660156 -2.226562 -5.394531 -2.1875 -5.125 C -2.15625 -4.851562 -2.066406 -4.585938 -1.921875 -4.328125 C -1.785156 -4.066406 -1.597656 -3.820312 -1.359375 -3.59375 C -1.117188 -3.351562 -0.863281 -3.160156 -0.59375 -3.015625 C -0.332031 -2.878906 -0.0664062 -2.796875 0.203125 -2.765625 C 0.484375 -2.742188 0.757812 -2.78125 1.03125 -2.875 C 1.3125 -2.976562 1.582031 -3.160156 1.84375 -3.421875 C 2.15625 -3.742188 2.34375 -4.082031 2.40625 -4.4375 C 2.476562 -4.800781 2.421875 -5.207031 2.234375 -5.65625 L 3.359375 -6.15625 C 3.546875 -5.726562 3.640625 -5.300781 3.640625 -4.875 C 3.648438 -4.457031 3.566406 -4.054688 3.390625 -3.671875 C 3.222656 -3.296875 2.984375 -2.941406 2.671875 -2.609375 Z M 2.671875 -2.609375 "/></g></g></g><g fill="#5d7466" fill-opacity="1"><g transform="translate(134.128869, 143.735135)"><g><path d="M 0.671875 -0.578125 L -3.828125 -5.8125 L -2.890625 -6.625 L -0.546875 -3.890625 L -0.34375 -8.8125 L 0.921875 -9.90625 L 0.671875 -5.953125 L 5.453125 -4.703125 L 4.28125 -3.6875 L 0.546875 -4.765625 L 0.4375 -2.75 L 1.609375 -1.390625 Z M 0.671875 -0.578125 "/></g></g></g><g fill="#5d7466" fill-opacity="1"><g transform="translate(139.476806, 139.157709)"><g><path d="M 1.828125 -1.34375 L -1.59375 -6.03125 L -3.34375 -4.75 L -4 -5.640625 L 0.484375 -8.90625 L 1.140625 -8.015625 L -0.59375 -6.75 L 2.828125 -2.0625 Z M 1.828125 -1.34375 "/></g></g></g><g fill="#5d7466" fill-opacity="1"><g transform="translate(143.93373, 135.874102)"><g><path d="M 0.046875 -0.03125 L -1.234375 -7.359375 L -0.453125 -7.84375 L 5.53125 -3.421875 L 4.375 -2.71875 L 3.125 -3.703125 L 0.875 -2.3125 L 1.1875 -0.734375 Z M 0.65625 -3.421875 L 2.234375 -4.390625 L 0.125 -6.046875 Z M 0.65625 -3.421875 "/></g></g></g><g fill="#5d7466" fill-opacity="1"><g transform="translate(149.37904, 132.552381)"><g><path d="M 0.78125 -0.421875 L -2.5 -6.5 L -1.40625 -7.09375 L 1.875 -1.015625 Z M 0.78125 -0.421875 "/></g></g></g><g fill="#5d7466" fill-opacity="1"><g transform="translate(151.884881, 131.159952)"><g><path d="M 0.796875 -0.390625 L -2.1875 -6.625 L -1.0625 -7.15625 L 1.421875 -1.984375 L 4.078125 -3.25 L 4.578125 -2.1875 Z M 0.796875 -0.390625 "/></g></g></g><g fill="#5d7466" fill-opacity="1"><g transform="translate(156.451965, 129.00915)"><g/></g></g><g fill="#5d7466" fill-opacity="1"><g transform="translate(158.488988, 128.07242)"><g><path d="M 3.546875 -1.15625 C 3.128906 -1.007812 2.726562 -0.9375 2.34375 -0.9375 C 1.96875 -0.9375 1.617188 -0.992188 1.296875 -1.109375 C 0.972656 -1.222656 0.675781 -1.390625 0.40625 -1.609375 C 0.144531 -1.828125 -0.0820312 -2.085938 -0.28125 -2.390625 C -0.488281 -2.703125 -0.65625 -3.035156 -0.78125 -3.390625 C -0.90625 -3.742188 -0.984375 -4.097656 -1.015625 -4.453125 C -1.054688 -4.816406 -1.039062 -5.164062 -0.96875 -5.5 C -0.90625 -5.84375 -0.785156 -6.160156 -0.609375 -6.453125 C -0.441406 -6.753906 -0.210938 -7.023438 0.078125 -7.265625 C 0.378906 -7.503906 0.742188 -7.703125 1.171875 -7.859375 C 1.609375 -8.015625 2.03125 -8.085938 2.4375 -8.078125 C 2.84375 -8.066406 3.234375 -7.96875 3.609375 -7.78125 C 3.992188 -7.601562 4.347656 -7.34375 4.671875 -7 L 3.734375 -6.1875 C 3.554688 -6.4375 3.347656 -6.613281 3.109375 -6.71875 C 2.878906 -6.832031 2.632812 -6.882812 2.375 -6.875 C 2.113281 -6.875 1.835938 -6.828125 1.546875 -6.734375 C 1.203125 -6.609375 0.925781 -6.445312 0.71875 -6.25 C 0.519531 -6.050781 0.375 -5.820312 0.28125 -5.5625 C 0.195312 -5.300781 0.160156 -5.023438 0.171875 -4.734375 C 0.191406 -4.441406 0.253906 -4.144531 0.359375 -3.84375 C 0.472656 -3.519531 0.617188 -3.234375 0.796875 -2.984375 C 0.972656 -2.734375 1.175781 -2.535156 1.40625 -2.390625 C 1.644531 -2.242188 1.910156 -2.15625 2.203125 -2.125 C 2.492188 -2.09375 2.8125 -2.140625 3.15625 -2.265625 C 3.582031 -2.410156 3.90625 -2.628906 4.125 -2.921875 C 4.34375 -3.210938 4.460938 -3.601562 4.484375 -4.09375 L 5.734375 -4.046875 C 5.703125 -3.578125 5.59375 -3.15625 5.40625 -2.78125 C 5.226562 -2.40625 4.984375 -2.078125 4.671875 -1.796875 C 4.359375 -1.523438 3.984375 -1.3125 3.546875 -1.15625 Z M 3.546875 -1.15625 "/></g></g></g><g fill="#5d7466" fill-opacity="1"><g transform="translate(164.82132, 125.798225)"><g><path d="M 3.640625 -0.84375 C 3.203125 -0.726562 2.789062 -0.6875 2.40625 -0.71875 C 2.019531 -0.75 1.671875 -0.835938 1.359375 -0.984375 C 1.054688 -1.128906 0.78125 -1.328125 0.53125 -1.578125 C 0.289062 -1.828125 0.0859375 -2.109375 -0.078125 -2.421875 C -0.242188 -2.742188 -0.375 -3.085938 -0.46875 -3.453125 C -0.5625 -3.816406 -0.609375 -4.175781 -0.609375 -4.53125 C -0.617188 -4.894531 -0.578125 -5.242188 -0.484375 -5.578125 C -0.398438 -5.910156 -0.253906 -6.21875 -0.046875 -6.5 C 0.148438 -6.78125 0.40625 -7.023438 0.71875 -7.234375 C 1.039062 -7.441406 1.421875 -7.601562 1.859375 -7.71875 C 2.304688 -7.832031 2.71875 -7.875 3.09375 -7.84375 C 3.476562 -7.8125 3.820312 -7.722656 4.125 -7.578125 C 4.425781 -7.429688 4.703125 -7.234375 4.953125 -6.984375 C 5.203125 -6.734375 5.410156 -6.445312 5.578125 -6.125 C 5.753906 -5.8125 5.890625 -5.472656 5.984375 -5.109375 C 6.078125 -4.742188 6.125 -4.378906 6.125 -4.015625 C 6.125 -3.660156 6.078125 -3.316406 5.984375 -2.984375 C 5.890625 -2.648438 5.742188 -2.34375 5.546875 -2.0625 C 5.347656 -1.78125 5.09375 -1.535156 4.78125 -1.328125 C 4.46875 -1.117188 4.085938 -0.957031 3.640625 -0.84375 Z M 3.359375 -1.90625 C 3.710938 -2 4 -2.140625 4.21875 -2.328125 C 4.445312 -2.515625 4.609375 -2.738281 4.703125 -3 C 4.796875 -3.269531 4.835938 -3.554688 4.828125 -3.859375 C 4.816406 -4.160156 4.773438 -4.46875 4.703125 -4.78125 C 4.617188 -5.09375 4.503906 -5.378906 4.359375 -5.640625 C 4.222656 -5.910156 4.050781 -6.132812 3.84375 -6.3125 C 3.632812 -6.5 3.382812 -6.625 3.09375 -6.6875 C 2.800781 -6.757812 2.476562 -6.75 2.125 -6.65625 C 1.769531 -6.5625 1.484375 -6.414062 1.265625 -6.21875 C 1.054688 -6.03125 0.898438 -5.800781 0.796875 -5.53125 C 0.703125 -5.269531 0.65625 -4.988281 0.65625 -4.6875 C 0.664062 -4.382812 0.710938 -4.078125 0.796875 -3.765625 C 0.867188 -3.453125 0.976562 -3.160156 1.125 -2.890625 C 1.269531 -2.628906 1.445312 -2.40625 1.65625 -2.21875 C 1.875 -2.039062 2.125 -1.921875 2.40625 -1.859375 C 2.6875 -1.796875 3.003906 -1.8125 3.359375 -1.90625 Z M 3.359375 -1.90625 "/></g></g></g><g fill="#5d7466" fill-opacity="1"><g transform="translate(171.805375, 124.010364)"><g><path d="M 0.875 -0.15625 L -0.28125 -6.96875 L 1.921875 -7.34375 C 2.242188 -7.394531 2.550781 -7.394531 2.84375 -7.34375 C 3.144531 -7.300781 3.414062 -7.210938 3.65625 -7.078125 C 3.894531 -6.941406 4.097656 -6.757812 4.265625 -6.53125 C 4.441406 -6.3125 4.5625 -6.046875 4.625 -5.734375 C 4.664062 -5.441406 4.644531 -5.164062 4.5625 -4.90625 C 4.488281 -4.65625 4.367188 -4.425781 4.203125 -4.21875 C 4.035156 -4.019531 3.828125 -3.859375 3.578125 -3.734375 L 5.984375 -1.015625 L 4.59375 -0.78125 L 2.40625 -3.40625 L 2.03125 -3.34375 L 1.59375 -3.265625 L 2.09375 -0.359375 Z M 1.4375 -4.25 L 2.515625 -4.4375 C 2.835938 -4.507812 3.078125 -4.640625 3.234375 -4.828125 C 3.390625 -5.023438 3.445312 -5.25 3.40625 -5.5 C 3.351562 -5.78125 3.210938 -5.988281 2.984375 -6.125 C 2.753906 -6.257812 2.460938 -6.300781 2.109375 -6.25 L 1.140625 -6.078125 Z M 1.4375 -4.25 "/></g></g></g><g fill="#5d7466" fill-opacity="1"><g transform="translate(177.664587, 122.982862)"><g><path d="M 4.390625 -7.3125 L 5.578125 -7.421875 L 6.1875 -0.546875 L 4.953125 -0.4375 L 1.640625 -5.015625 L 2.0625 -0.1875 L 0.890625 -0.078125 L 0.28125 -6.953125 L 1.5 -7.0625 L 4.8125 -2.5 Z M 4.390625 -7.3125 "/></g></g></g><g fill="#5d7466" fill-opacity="1"><g transform="translate(184.496028, 122.395337)"><g><path d="M 0.890625 0 L 0.84375 -6.90625 L 5.4375 -6.9375 L 5.453125 -5.796875 L 2.09375 -5.78125 L 2.09375 -4.03125 L 5.21875 -4.046875 L 5.234375 -2.90625 L 2.109375 -2.890625 L 2.125 -1.1875 L 5.484375 -1.203125 L 5.484375 -0.03125 Z M 0.890625 0 "/></g></g></g><g fill="#5d7466" fill-opacity="1"><g transform="translate(190.349099, 122.345702)"><g><path d="M 0.890625 0.0625 L 1.359375 -6.828125 L 3.59375 -6.671875 C 3.90625 -6.648438 4.203125 -6.582031 4.484375 -6.46875 C 4.765625 -6.351562 5.007812 -6.203125 5.21875 -6.015625 C 5.425781 -5.828125 5.585938 -5.601562 5.703125 -5.34375 C 5.816406 -5.09375 5.859375 -4.804688 5.828125 -4.484375 C 5.816406 -4.191406 5.738281 -3.925781 5.59375 -3.6875 C 5.457031 -3.457031 5.28125 -3.265625 5.0625 -3.109375 C 4.851562 -2.960938 4.617188 -2.859375 4.359375 -2.796875 L 6.0625 0.421875 L 4.640625 0.328125 L 3.15625 -2.75 L 2.765625 -2.78125 L 2.328125 -2.8125 L 2.125 0.140625 Z M 2.40625 -3.796875 L 3.5 -3.71875 C 3.820312 -3.71875 4.082031 -3.789062 4.28125 -3.9375 C 4.476562 -4.082031 4.582031 -4.28125 4.59375 -4.53125 C 4.613281 -4.820312 4.523438 -5.0625 4.328125 -5.25 C 4.140625 -5.4375 3.875 -5.539062 3.53125 -5.5625 L 2.546875 -5.640625 Z M 2.40625 -3.796875 "/></g></g></g><g fill="#5d7466" fill-opacity="1"><g transform="translate(138.27209, 230.089833)"><g><path d="M 3.59375 -9.796875 L 3.59375 -6.1875 L 9.578125 -6.1875 L 9.578125 -4.296875 L 3.59375 -4.296875 L 3.59375 0 L 1.140625 0 L 1.140625 -11.703125 L 9.765625 -11.703125 L 9.765625 -9.796875 Z M 3.59375 -9.796875 "/></g></g></g><g fill="#5d7466" fill-opacity="1"><g transform="translate(148.651595, 230.089833)"><g><path d="M 9.40625 0 L 8.375 -2.984375 L 3.90625 -2.984375 L 2.875 0 L 0.421875 0 L 4.6875 -11.703125 L 7.578125 -11.703125 L 11.828125 0 Z M 6.140625 -9.890625 L 6.078125 -9.71875 C 6.023438 -9.507812 5.957031 -9.28125 5.875 -9.03125 C 5.800781 -8.78125 5.328125 -7.378906 4.453125 -4.828125 L 7.8125 -4.828125 L 6.671875 -8.1875 L 6.3125 -9.328125 Z M 6.140625 -9.890625 "/></g></g></g><g fill="#5d7466" fill-opacity="1"><g transform="translate(160.922807, 230.089833)"><g><path d="M 6 0.171875 C 4.394531 0.171875 3.160156 -0.21875 2.296875 -1 C 1.441406 -1.789062 1.015625 -2.921875 1.015625 -4.390625 L 1.015625 -11.703125 L 3.46875 -11.703125 L 3.46875 -4.578125 C 3.46875 -3.648438 3.6875 -2.945312 4.125 -2.46875 C 4.570312 -1.988281 5.21875 -1.75 6.0625 -1.75 C 6.9375 -1.75 7.609375 -2 8.078125 -2.5 C 8.554688 -3 8.796875 -3.71875 8.796875 -4.65625 L 8.796875 -11.703125 L 11.234375 -11.703125 L 11.234375 -4.5 C 11.234375 -3.019531 10.773438 -1.867188 9.859375 -1.046875 C 8.941406 -0.234375 7.65625 0.171875 6 0.171875 Z M 6 0.171875 "/></g></g></g><g fill="#5d7466" fill-opacity="1"><g transform="translate(173.19402, 230.089833)"><g><path d="M 6.6875 -1.75 C 7.320312 -1.75 7.9375 -1.84375 8.53125 -2.03125 C 9.132812 -2.21875 9.597656 -2.453125 9.921875 -2.734375 L 9.921875 -4.359375 L 7.078125 -4.359375 L 7.078125 -6.171875 L 12.171875 -6.171875 L 12.171875 -1.875 C 11.546875 -1.226562 10.738281 -0.722656 9.75 -0.359375 C 8.757812 -0.00390625 7.71875 0.171875 6.625 0.171875 C 4.71875 0.171875 3.253906 -0.351562 2.234375 -1.40625 C 1.210938 -2.46875 0.703125 -3.96875 0.703125 -5.90625 C 0.703125 -7.832031 1.210938 -9.304688 2.234375 -10.328125 C 3.265625 -11.359375 4.75 -11.875 6.6875 -11.875 C 9.425781 -11.875 11.171875 -10.859375 11.921875 -8.828125 L 9.65625 -8.140625 C 9.414062 -8.734375 9.035156 -9.179688 8.515625 -9.484375 C 7.992188 -9.785156 7.382812 -9.9375 6.6875 -9.9375 C 5.53125 -9.9375 4.648438 -9.585938 4.046875 -8.890625 C 3.453125 -8.203125 3.15625 -7.207031 3.15625 -5.90625 C 3.15625 -4.582031 3.460938 -3.554688 4.078125 -2.828125 C 4.703125 -2.109375 5.570312 -1.75 6.6875 -1.75 Z M 6.6875 -1.75 "/></g></g></g><g fill="#5d7466" fill-opacity="1"><g transform="translate(186.411087, 230.089833)"><g><path d="M 1.140625 0 L 1.140625 -11.703125 L 10.328125 -11.703125 L 10.328125 -9.796875 L 3.59375 -9.796875 L 3.59375 -6.859375 L 9.828125 -6.859375 L 9.828125 -4.96875 L 3.59375 -4.96875 L 3.59375 -1.890625 L 10.671875 -1.890625 L 10.671875 0 Z M 1.140625 0 "/></g></g></g><g fill="#5d7466" fill-opacity="1"><g transform="translate(197.744742, 230.089833)"><g><path d="M 6.421875 -9.796875 L 6.421875 0 L 3.96875 0 L 3.96875 -9.796875 L 0.1875 -9.796875 L 0.1875 -11.703125 L 10.203125 -11.703125 L 10.203125 -9.796875 Z M 6.421875 -9.796875 "/></g></g></g></svg>