<svg xmlns="http://www.w3.org/2000/svg" xmlns:xlink="http://www.w3.org/1999/xlink" width="500" zoomAndPan="magnify" viewBox="0 0 375 374.999991" height="500" preserveAspectRatio="xMidYMid meet" version="1.0"><defs><g/><clipPath id="2d7db1794b"><path d="M 25.152344 25.152344 L 349.847656 25.152344 L 349.847656 349.847656 L 25.152344 349.847656 Z M 25.152344 25.152344 " clip-rule="nonzero"/></clipPath><clipPath id="3948674916"><path d="M 0.152344 0.152344 L 324.847656 0.152344 L 324.847656 324.847656 L 0.152344 324.847656 Z M 0.152344 0.152344 " clip-rule="nonzero"/></clipPath><clipPath id="6806f943c1"><rect x="0" width="325" y="0" height="325"/></clipPath><clipPath id="51dce4fb79"><path d="M 116.175781 125.476562 L 262 125.476562 L 262 271 L 116.175781 271 Z M 116.175781 125.476562 " clip-rule="nonzero"/></clipPath><clipPath id="8f6e537353"><path d="M 121 127 L 266.175781 127 L 266.175781 272.476562 L 121 272.476562 Z M 121 127 " clip-rule="nonzero"/></clipPath></defs><rect x="-37.5" width="450" fill="#ffffff" y="-37.499999" height="449.999989" fill-opacity="1"/><rect x="-37.5" width="450" fill="#ffffff" y="-37.499999" height="449.999989" fill-opacity="1"/><g clip-path="url(#2d7db1794b)"><g transform="matrix(1, 0, 0, 1, 25, 25)"><g clip-path="url(#6806f943c1)"><g clip-path="url(#3948674916)"><path fill="#5d7466" d="M 0.152344 0.152344 L 324.847656 0.152344 L 324.847656 324.847656 L 0.152344 324.847656 Z M 0.152344 0.152344 " fill-opacity="1" fill-rule="nonzero"/></g></g></g></g><g clip-path="url(#51dce4fb79)"><path fill="#f0efec" d="M 188.601562 270.414062 C 148.667969 270.414062 116.175781 237.925781 116.175781 197.992188 C 116.175781 158.054688 148.667969 125.566406 188.601562 125.566406 C 228.539062 125.566406 261.027344 158.054688 261.027344 197.992188 C 261.027344 237.925781 228.539062 270.414062 188.601562 270.414062 Z M 188.601562 127.042969 C 149.480469 127.042969 117.65625 158.871094 117.65625 197.992188 C 117.65625 237.109375 149.480469 268.9375 188.601562 268.9375 C 227.722656 268.9375 259.550781 237.109375 259.550781 197.992188 C 259.550781 158.871094 227.722656 127.042969 188.601562 127.042969 Z M 188.601562 127.042969 " fill-opacity="1" fill-rule="nonzero"/></g><g clip-path="url(#8f6e537353)"><path fill="#f0efec" d="M 193.722656 272.378906 L 193.3125 272.378906 C 192.90625 272.375 192.578125 272.042969 192.578125 271.636719 C 192.582031 271.226562 192.910156 270.898438 193.316406 270.898438 C 193.320312 270.898438 193.320312 270.898438 193.320312 270.898438 L 193.722656 270.902344 C 194.808594 270.902344 195.902344 270.878906 196.976562 270.828125 C 197.386719 270.796875 197.730469 271.125 197.75 271.53125 C 197.765625 271.941406 197.453125 272.285156 197.042969 272.304688 C 195.949219 272.351562 194.832031 272.378906 193.722656 272.378906 Z M 205.820312 271.363281 C 205.464844 271.363281 205.152344 271.109375 205.089844 270.746094 C 205.023438 270.34375 205.292969 269.964844 205.695312 269.894531 C 210.496094 269.078125 215.226562 267.761719 219.753906 265.972656 C 220.136719 265.824219 220.5625 266.007812 220.710938 266.390625 C 220.863281 266.769531 220.675781 267.199219 220.296875 267.347656 C 215.671875 269.171875 210.84375 270.519531 205.941406 271.351562 C 205.902344 271.359375 205.859375 271.363281 205.820312 271.363281 Z M 178.660156 270.792969 C 178.609375 270.792969 178.554688 270.789062 178.503906 270.777344 C 175.59375 270.15625 172.691406 269.34375 169.878906 268.363281 C 169.492188 268.226562 169.289062 267.804688 169.421875 267.421875 C 169.558594 267.035156 169.976562 266.832031 170.363281 266.964844 C 173.117188 267.925781 175.960938 268.722656 178.8125 269.332031 C 179.210938 269.417969 179.464844 269.808594 179.378906 270.210938 C 179.304688 270.554688 179 270.792969 178.660156 270.792969 Z M 166.65625 267.09375 C 166.566406 267.09375 166.46875 267.078125 166.378906 267.039062 C 161.78125 265.164062 157.359375 262.800781 153.234375 260.015625 C 152.898438 259.785156 152.808594 259.324219 153.035156 258.988281 C 153.265625 258.648438 153.722656 258.5625 154.0625 258.789062 C 158.105469 261.519531 162.433594 263.832031 166.9375 265.667969 C 167.316406 265.824219 167.496094 266.253906 167.34375 266.632812 C 167.226562 266.921875 166.949219 267.09375 166.65625 267.09375 Z M 223.417969 265.960938 C 223.136719 265.960938 222.867188 265.800781 222.746094 265.527344 C 222.574219 265.15625 222.738281 264.71875 223.109375 264.546875 C 225.761719 263.339844 228.359375 261.953125 230.84375 260.425781 C 231.191406 260.210938 231.644531 260.320312 231.859375 260.667969 C 232.074219 261.015625 231.964844 261.472656 231.617188 261.6875 C 229.085938 263.242188 226.429688 264.660156 223.722656 265.894531 C 223.625 265.9375 223.519531 265.960938 223.417969 265.960938 Z M 146.628906 254.738281 C 146.457031 254.738281 146.28125 254.679688 146.140625 254.554688 C 145.210938 253.746094 144.285156 252.894531 143.394531 252.03125 C 143.101562 251.746094 143.09375 251.28125 143.375 250.988281 C 143.660156 250.695312 144.128906 250.6875 144.421875 250.96875 C 145.296875 251.816406 146.203125 252.648438 147.113281 253.441406 C 147.421875 253.710938 147.453125 254.179688 147.183594 254.484375 C 147.039062 254.652344 146.832031 254.738281 146.628906 254.738281 Z M 242.933594 252.820312 C 242.738281 252.820312 242.542969 252.742188 242.394531 252.589844 C 242.117188 252.292969 242.128906 251.824219 242.425781 251.542969 C 243.304688 250.714844 244.175781 249.847656 245.019531 248.96875 C 245.300781 248.671875 245.769531 248.660156 246.0625 248.945312 C 246.355469 249.226562 246.367188 249.695312 246.085938 249.988281 C 245.226562 250.886719 244.339844 251.769531 243.441406 252.617188 C 243.296875 252.753906 243.113281 252.820312 242.933594 252.820312 Z M 251.269531 243.445312 C 251.117188 243.445312 250.960938 243.398438 250.828125 243.300781 C 250.5 243.058594 250.433594 242.59375 250.675781 242.269531 C 253.585938 238.355469 256.097656 234.136719 258.140625 229.722656 C 258.3125 229.351562 258.753906 229.191406 259.121094 229.363281 C 259.492188 229.53125 259.65625 229.972656 259.484375 230.34375 C 257.398438 234.847656 254.832031 239.15625 251.863281 243.148438 C 251.71875 243.34375 251.496094 243.445312 251.269531 243.445312 Z M 134.40625 240.960938 C 134.171875 240.960938 133.9375 240.847656 133.792969 240.636719 C 132.121094 238.175781 130.585938 235.585938 129.230469 232.941406 C 129.042969 232.578125 129.1875 232.132812 129.550781 231.945312 C 129.910156 231.757812 130.359375 231.902344 130.542969 232.265625 C 131.875 234.859375 133.378906 237.394531 135.015625 239.804688 C 135.246094 240.140625 135.160156 240.601562 134.820312 240.832031 C 134.695312 240.917969 134.550781 240.960938 134.40625 240.960938 Z M 128.292969 230.019531 C 128.007812 230.019531 127.738281 229.859375 127.617188 229.582031 C 125.578125 225.046875 124.011719 220.285156 122.957031 215.429688 C 122.867188 215.03125 123.121094 214.640625 123.519531 214.550781 C 123.925781 214.464844 124.3125 214.71875 124.398438 215.117188 C 125.433594 219.871094 126.96875 224.535156 128.964844 228.980469 C 129.132812 229.351562 128.964844 229.789062 128.59375 229.957031 C 128.496094 230 128.390625 230.019531 128.292969 230.019531 Z M 260.277344 227.375 C 260.1875 227.375 260.09375 227.359375 260.003906 227.320312 C 259.625 227.171875 259.441406 226.738281 259.59375 226.359375 C 260.679688 223.652344 261.605469 220.847656 262.347656 218.03125 C 262.449219 217.636719 262.855469 217.398438 263.25 217.503906 C 263.644531 217.609375 263.878906 218.011719 263.777344 218.40625 C 263.019531 221.285156 262.074219 224.144531 260.964844 226.910156 C 260.847656 227.199219 260.570312 227.375 260.277344 227.375 Z M 122.332031 207.257812 C 121.953125 207.257812 121.632812 206.96875 121.597656 206.585938 C 121.488281 205.355469 121.40625 204.101562 121.355469 202.863281 C 121.339844 202.453125 121.65625 202.109375 122.0625 202.09375 C 122.46875 202.074219 122.816406 202.394531 122.832031 202.804688 C 122.878906 204.019531 122.960938 205.246094 123.070312 206.453125 C 123.105469 206.859375 122.808594 207.21875 122.398438 207.253906 C 122.378906 207.257812 122.355469 207.257812 122.332031 207.257812 Z M 265.316406 204.386719 C 265.304688 204.386719 265.292969 204.386719 265.277344 204.382812 C 264.871094 204.363281 264.558594 204.015625 264.578125 203.609375 C 264.640625 202.402344 264.671875 201.175781 264.671875 199.953125 C 264.671875 199.546875 265 199.214844 265.410156 199.214844 C 265.816406 199.214844 266.148438 199.546875 266.148438 199.953125 C 266.148438 201.199219 266.117188 202.453125 266.054688 203.683594 C 266.035156 204.078125 265.707031 204.386719 265.316406 204.386719 Z M 264.792969 191.257812 C 264.425781 191.257812 264.109375 190.988281 264.0625 190.613281 C 263.902344 189.40625 263.710938 188.191406 263.492188 187.003906 C 263.417969 186.601562 263.683594 186.21875 264.082031 186.144531 C 264.492188 186.066406 264.871094 186.335938 264.945312 186.738281 C 265.167969 187.949219 265.363281 189.1875 265.527344 190.421875 C 265.578125 190.828125 265.296875 191.199219 264.890625 191.25 C 264.855469 191.253906 264.824219 191.257812 264.792969 191.257812 Z M 123.011719 188.851562 C 122.972656 188.851562 122.929688 188.847656 122.890625 188.839844 C 122.488281 188.773438 122.214844 188.394531 122.28125 187.992188 C 122.769531 185.054688 123.449219 182.121094 124.296875 179.269531 C 124.414062 178.878906 124.824219 178.65625 125.214844 178.773438 C 125.605469 178.890625 125.828125 179.300781 125.710938 179.691406 C 124.882812 182.480469 124.21875 185.355469 123.738281 188.234375 C 123.679688 188.597656 123.367188 188.851562 123.011719 188.851562 Z M 262.074219 179.015625 C 261.757812 179.015625 261.46875 178.8125 261.371094 178.5 C 259.898438 173.863281 257.9375 169.359375 255.542969 165.117188 C 255.34375 164.761719 255.464844 164.308594 255.820312 164.109375 C 256.179688 163.914062 256.628906 164.035156 256.828125 164.390625 C 259.277344 168.722656 261.277344 173.320312 262.777344 178.054688 C 262.902344 178.441406 262.6875 178.855469 262.296875 178.980469 C 262.222656 179.003906 262.148438 179.015625 262.074219 179.015625 Z M 126.148438 176.710938 C 126.066406 176.710938 125.980469 176.695312 125.898438 176.667969 C 125.515625 176.53125 125.316406 176.109375 125.453125 175.722656 C 127.113281 171.046875 129.269531 166.519531 131.863281 162.273438 C 132.074219 161.921875 132.53125 161.8125 132.878906 162.027344 C 133.226562 162.238281 133.335938 162.691406 133.125 163.042969 C 130.582031 167.203125 128.46875 171.636719 126.84375 176.21875 C 126.738281 176.519531 126.453125 176.710938 126.148438 176.710938 Z M 254.289062 162.328125 C 254.046875 162.328125 253.804688 162.207031 253.664062 161.984375 C 252.105469 159.527344 250.375 157.136719 248.519531 154.886719 C 248.261719 154.574219 248.308594 154.105469 248.621094 153.847656 C 248.9375 153.589844 249.402344 153.632812 249.660156 153.949219 C 251.554688 156.246094 253.320312 158.683594 254.914062 161.191406 C 255.132812 161.539062 255.027344 161.996094 254.683594 162.214844 C 254.5625 162.289062 254.425781 162.328125 254.289062 162.328125 Z M 137.566406 156.128906 C 137.40625 156.128906 137.242188 156.078125 137.109375 155.96875 C 136.789062 155.714844 136.734375 155.25 136.988281 154.929688 C 137.761719 153.960938 138.566406 153 139.386719 152.070312 C 139.65625 151.761719 140.125 151.734375 140.429688 152.003906 C 140.734375 152.273438 140.765625 152.742188 140.496094 153.046875 C 139.691406 153.957031 138.902344 154.898438 138.148438 155.851562 C 138 156.035156 137.785156 156.128906 137.566406 156.128906 Z M 238.601562 144.789062 C 238.4375 144.789062 238.273438 144.738281 238.136719 144.625 C 237.195312 143.867188 236.214844 143.121094 235.230469 142.410156 C 234.898438 142.171875 234.824219 141.707031 235.0625 141.378906 C 235.300781 141.046875 235.761719 140.972656 236.09375 141.210938 C 237.101562 141.9375 238.101562 142.699219 239.0625 143.472656 C 239.382812 143.730469 239.429688 144.195312 239.175781 144.511719 C 239.03125 144.695312 238.816406 144.789062 238.601562 144.789062 Z M 150.777344 143.292969 C 150.550781 143.292969 150.328125 143.1875 150.183594 142.996094 C 149.9375 142.667969 150.003906 142.207031 150.332031 141.960938 C 152.714844 140.175781 155.230469 138.523438 157.808594 137.046875 C 158.164062 136.84375 158.617188 136.96875 158.816406 137.324219 C 159.019531 137.675781 158.894531 138.128906 158.542969 138.332031 C 156.015625 139.777344 153.550781 141.394531 151.21875 143.144531 C 151.085938 143.242188 150.929688 143.292969 150.777344 143.292969 Z M 228.171875 137.8125 C 228.050781 137.8125 227.929688 137.78125 227.816406 137.71875 C 223.542969 135.375 219.019531 133.46875 214.363281 132.054688 C 213.972656 131.9375 213.753906 131.523438 213.871094 131.132812 C 213.988281 130.746094 214.398438 130.523438 214.792969 130.640625 C 219.546875 132.085938 224.167969 134.03125 228.527344 136.425781 C 228.886719 136.621094 229.015625 137.070312 228.820312 137.429688 C 228.683594 137.671875 228.433594 137.8125 228.171875 137.8125 Z M 161.425781 136.679688 C 161.15625 136.679688 160.894531 136.53125 160.761719 136.273438 C 160.578125 135.910156 160.726562 135.464844 161.089844 135.28125 C 165.527344 133.035156 170.210938 131.25 175.011719 129.96875 C 175.40625 129.863281 175.8125 130.097656 175.917969 130.492188 C 176.023438 130.886719 175.789062 131.292969 175.394531 131.398438 C 170.691406 132.648438 166.105469 134.402344 161.757812 136.597656 C 161.648438 136.652344 161.535156 136.679688 161.425781 136.679688 Z M 211.019531 131.109375 C 210.960938 131.109375 210.898438 131.101562 210.839844 131.085938 C 208.015625 130.386719 205.113281 129.855469 202.214844 129.511719 C 201.8125 129.464844 201.523438 129.09375 201.570312 128.691406 C 201.617188 128.285156 201.980469 127.992188 202.390625 128.042969 C 205.347656 128.398438 208.3125 128.9375 211.195312 129.652344 C 211.589844 129.75 211.832031 130.152344 211.734375 130.546875 C 211.652344 130.882812 211.351562 131.109375 211.019531 131.109375 Z M 183.886719 129.675781 C 183.523438 129.675781 183.207031 129.40625 183.15625 129.039062 C 183.101562 128.632812 183.382812 128.261719 183.789062 128.207031 C 185.015625 128.035156 186.265625 127.898438 187.496094 127.792969 C 187.902344 127.75 188.261719 128.058594 188.292969 128.464844 C 188.328125 128.875 188.027344 129.230469 187.621094 129.265625 C 186.414062 129.367188 185.191406 129.503906 183.988281 129.667969 C 183.953125 129.675781 183.921875 129.675781 183.886719 129.675781 Z M 183.886719 129.675781 " fill-opacity="1" fill-rule="nonzero"/></g><path fill="#f0efec" d="M 202.585938 269.046875 C 202.445312 269.046875 202.308594 269.007812 202.183594 268.925781 C 201.839844 268.703125 201.742188 268.246094 201.964844 267.902344 C 216.832031 245.011719 218.730469 215.34375 206.929688 190.484375 C 206.753906 190.113281 206.910156 189.671875 207.277344 189.5 C 207.648438 189.324219 208.089844 189.480469 208.261719 189.851562 C 220.285156 215.171875 218.347656 245.390625 203.207031 268.710938 C 203.0625 268.925781 202.828125 269.046875 202.585938 269.046875 Z M 202.585938 269.046875 " fill-opacity="1" fill-rule="nonzero"/><path fill="#f0efec" d="M 213.785156 265.859375 C 213.6875 265.859375 213.585938 265.839844 213.488281 265.796875 C 213.113281 265.632812 212.949219 265.195312 213.113281 264.824219 C 223.800781 240.679688 222.726562 212.503906 210.234375 189.453125 C 210.039062 189.097656 210.171875 188.648438 210.53125 188.453125 C 210.886719 188.257812 211.339844 188.390625 211.53125 188.75 C 224.242188 212.199219 225.335938 240.863281 214.460938 265.421875 C 214.339844 265.695312 214.070312 265.859375 213.785156 265.859375 Z M 213.785156 265.859375 " fill-opacity="1" fill-rule="nonzero"/><path fill="#f0efec" d="M 207.027344 182.710938 C 206.863281 182.710938 206.699219 182.65625 206.5625 182.542969 C 179.800781 160.851562 141.917969 178.273438 141.539062 178.453125 C 141.234375 178.59375 140.875 178.515625 140.660156 178.257812 C 140.441406 178.003906 140.425781 177.632812 140.617188 177.359375 C 152.53125 160.351562 164.566406 152.308594 176.394531 153.433594 C 184.402344 154.195312 192.359375 159.335938 199.410156 168.292969 C 204.699219 175.011719 207.671875 181.601562 207.703125 181.667969 C 207.839844 181.980469 207.75 182.347656 207.476562 182.554688 C 207.34375 182.660156 207.1875 182.710938 207.027344 182.710938 Z M 173.671875 170.199219 C 183.84375 170.199219 194.988281 172.433594 204.921875 179.449219 C 201.292969 172.742188 190.960938 156.304688 176.25 154.902344 C 165.484375 153.886719 154.417969 161.007812 143.339844 176.101562 C 148.261719 174.179688 160.101562 170.199219 173.671875 170.199219 Z M 173.671875 170.199219 " fill-opacity="1" fill-rule="nonzero"/><path fill="#f0efec" d="M 247.492188 201.660156 C 247.238281 201.660156 246.996094 201.527344 246.859375 201.300781 C 235.183594 181.898438 207.832031 184.175781 207.550781 184.203125 C 207.214844 184.238281 206.90625 184.035156 206.792969 183.71875 C 206.675781 183.40625 206.785156 183.054688 207.058594 182.859375 C 218.386719 174.910156 227.78125 172.605469 234.976562 176.019531 C 246.695312 181.578125 248.171875 200.082031 248.230469 200.867188 C 248.253906 201.207031 248.042969 201.519531 247.71875 201.625 C 247.644531 201.644531 247.566406 201.660156 247.492188 201.660156 Z M 210.402344 182.632812 C 217.597656 182.632812 236.03125 184.0625 246.339844 197.875 C 245.398438 192.398438 242.515625 181.230469 234.339844 177.351562 C 228.101562 174.394531 219.929688 176.171875 210.03125 182.632812 C 210.152344 182.632812 210.273438 182.632812 210.402344 182.632812 Z M 210.402344 182.632812 " fill-opacity="1" fill-rule="nonzero"/><path fill="#f0efec" d="M 167.519531 201.660156 C 167.445312 201.660156 167.371094 201.648438 167.292969 201.625 C 166.96875 201.519531 166.757812 201.207031 166.78125 200.867188 C 166.839844 200.082031 168.320312 181.578125 180.039062 176.019531 C 187.230469 172.605469 196.625 174.90625 207.953125 182.859375 C 208.226562 183.054688 208.335938 183.40625 208.21875 183.71875 C 208.105469 184.035156 207.800781 184.234375 207.460938 184.203125 C 207.183594 184.175781 179.828125 181.898438 168.152344 201.300781 C 168.015625 201.527344 167.773438 201.660156 167.519531 201.660156 Z M 187.089844 175.964844 C 184.765625 175.964844 182.625 176.429688 180.671875 177.355469 C 172.488281 181.238281 169.609375 192.40625 168.671875 197.878906 C 178.976562 184.066406 197.414062 182.632812 204.609375 182.632812 C 204.738281 182.632812 204.863281 182.632812 204.984375 182.632812 C 198.179688 178.195312 192.191406 175.964844 187.089844 175.964844 Z M 187.089844 175.964844 " fill-opacity="1" fill-rule="nonzero"/><path fill="#f0efec" d="M 207.527344 183.214844 C 207.410156 183.214844 207.296875 183.191406 207.1875 183.132812 C 206.890625 182.980469 206.734375 182.644531 206.804688 182.316406 C 209.808594 168.804688 215.191406 160.773438 222.804688 158.441406 C 235.210938 154.648438 248.777344 167.304688 249.347656 167.84375 C 249.597656 168.082031 249.652344 168.453125 249.480469 168.753906 C 249.308594 169.046875 248.957031 169.1875 248.628906 169.089844 C 226.910156 162.632812 208.261719 182.773438 208.074219 182.976562 C 207.929688 183.132812 207.730469 183.214844 207.527344 183.214844 Z M 227.609375 159.21875 C 226.140625 159.21875 224.671875 159.414062 223.234375 159.851562 C 216.632812 161.875 211.800781 168.699219 208.847656 180.144531 C 213.914062 175.449219 228.703125 163.609375 245.933594 166.914062 C 242.277344 164.070312 234.957031 159.21875 227.609375 159.21875 Z M 227.609375 159.21875 " fill-opacity="1" fill-rule="nonzero"/><path fill="#f0efec" d="M 206.550781 183.214844 C 206.527344 183.214844 206.5 183.214844 206.476562 183.210938 C 206.140625 183.179688 205.875 182.921875 205.820312 182.59375 C 205.777344 182.320312 201.238281 155.25 179.558594 148.714844 C 179.230469 148.617188 179.011719 148.304688 179.03125 147.964844 C 179.050781 147.621094 179.304688 147.339844 179.640625 147.277344 C 180.414062 147.140625 198.710938 144.011719 206.988281 154 C 212.070312 160.128906 212.15625 169.800781 207.242188 182.738281 C 207.132812 183.027344 206.855469 183.214844 206.550781 183.214844 Z M 183.003906 148.375 C 199.214844 155.074219 205.074219 173.097656 206.730469 179.804688 C 210.546875 168.617188 210.253906 160.261719 205.851562 154.945312 C 200.078125 147.976562 188.546875 147.941406 183.003906 148.375 Z M 183.003906 148.375 " fill-opacity="1" fill-rule="nonzero"/><path fill="#f0efec" d="M 209.414062 176.375 L 209.40625 176.375 C 208.996094 176.375 208.667969 176.042969 208.667969 175.636719 C 208.667969 175.226562 208.996094 174.894531 209.40625 174.894531 C 209.8125 174.894531 210.148438 175.226562 210.148438 175.636719 C 210.148438 176.042969 209.820312 176.375 209.414062 176.375 Z M 209.414062 176.375 " fill-opacity="1" fill-rule="nonzero"/><path fill="#f0efec" d="M 208.816406 176.199219 L 208.808594 176.199219 C 208.398438 176.199219 208.066406 175.871094 208.066406 175.460938 C 208.066406 175.050781 208.398438 174.722656 208.808594 174.722656 C 209.214844 174.722656 209.550781 175.050781 209.550781 175.460938 C 209.550781 175.871094 209.222656 176.199219 208.816406 176.199219 Z M 208.816406 176.199219 " fill-opacity="1" fill-rule="nonzero"/><path fill="#f0efec" d="M 206.984375 190.9375 C 202.789062 190.9375 199.273438 187.796875 198.8125 183.636719 C 198.765625 183.234375 199.058594 182.867188 199.464844 182.820312 C 199.878906 182.78125 200.234375 183.070312 200.28125 183.472656 C 200.660156 186.886719 203.542969 189.457031 206.984375 189.457031 C 210.457031 189.457031 213.34375 186.855469 213.691406 183.40625 C 213.734375 183 214.097656 182.714844 214.5 182.746094 C 214.90625 182.785156 215.203125 183.148438 215.164062 183.554688 C 214.734375 187.761719 211.21875 190.9375 206.984375 190.9375 Z M 206.984375 190.9375 " fill-opacity="1" fill-rule="nonzero"/><g fill="#f0efec" fill-opacity="1"><g transform="translate(122.16699, 160.401653)"><g><path d="M 2.171875 -3.046875 C 1.921875 -2.671875 1.640625 -2.367188 1.328125 -2.140625 C 1.023438 -1.910156 0.707031 -1.75 0.375 -1.65625 C 0.0507812 -1.5625 -0.28125 -1.523438 -0.625 -1.546875 C -0.96875 -1.566406 -1.304688 -1.640625 -1.640625 -1.765625 C -1.984375 -1.898438 -2.3125 -2.070312 -2.625 -2.28125 C -2.9375 -2.488281 -3.210938 -2.722656 -3.453125 -2.984375 C -3.703125 -3.253906 -3.898438 -3.546875 -4.046875 -3.859375 C -4.191406 -4.171875 -4.285156 -4.492188 -4.328125 -4.828125 C -4.367188 -5.171875 -4.34375 -5.523438 -4.25 -5.890625 C -4.15625 -6.265625 -3.976562 -6.644531 -3.71875 -7.03125 C -3.457031 -7.40625 -3.15625 -7.707031 -2.8125 -7.9375 C -2.476562 -8.175781 -2.101562 -8.332031 -1.6875 -8.40625 C -1.28125 -8.488281 -0.847656 -8.488281 -0.390625 -8.40625 L -0.65625 -7.1875 C -0.957031 -7.289062 -1.234375 -7.316406 -1.484375 -7.265625 C -1.734375 -7.222656 -1.960938 -7.117188 -2.171875 -6.953125 C -2.378906 -6.796875 -2.570312 -6.59375 -2.75 -6.34375 C -2.945312 -6.039062 -3.066406 -5.75 -3.109375 -5.46875 C -3.160156 -5.1875 -3.144531 -4.910156 -3.0625 -4.640625 C -2.988281 -4.378906 -2.859375 -4.132812 -2.671875 -3.90625 C -2.484375 -3.6875 -2.257812 -3.488281 -2 -3.3125 C -1.707031 -3.113281 -1.414062 -2.96875 -1.125 -2.875 C -0.84375 -2.78125 -0.5625 -2.742188 -0.28125 -2.765625 C 0 -2.785156 0.265625 -2.867188 0.515625 -3.015625 C 0.765625 -3.171875 0.992188 -3.398438 1.203125 -3.703125 C 1.453125 -4.078125 1.578125 -4.441406 1.578125 -4.796875 C 1.585938 -5.160156 1.457031 -5.550781 1.1875 -5.96875 L 2.234375 -6.671875 C 2.484375 -6.273438 2.644531 -5.867188 2.71875 -5.453125 C 2.800781 -5.035156 2.796875 -4.625 2.703125 -4.21875 C 2.609375 -3.8125 2.429688 -3.421875 2.171875 -3.046875 Z M 2.171875 -3.046875 "/></g></g></g><g fill="#f0efec" fill-opacity="1"><g transform="translate(125.919638, 154.817052)"><g><path d="M 2.4375 -2.828125 C 2.144531 -2.472656 1.835938 -2.195312 1.515625 -2 C 1.191406 -1.800781 0.859375 -1.664062 0.515625 -1.59375 C 0.171875 -1.53125 -0.164062 -1.53125 -0.5 -1.59375 C -0.832031 -1.65625 -1.160156 -1.757812 -1.484375 -1.90625 C -1.816406 -2.0625 -2.128906 -2.257812 -2.421875 -2.5 C -2.710938 -2.726562 -2.960938 -2.988281 -3.171875 -3.28125 C -3.390625 -3.570312 -3.5625 -3.875 -3.6875 -4.1875 C -3.820312 -4.507812 -3.890625 -4.84375 -3.890625 -5.1875 C -3.890625 -5.539062 -3.820312 -5.894531 -3.6875 -6.25 C -3.5625 -6.601562 -3.351562 -6.957031 -3.0625 -7.3125 C -2.769531 -7.664062 -2.460938 -7.941406 -2.140625 -8.140625 C -1.828125 -8.347656 -1.5 -8.484375 -1.15625 -8.546875 C -0.820312 -8.609375 -0.484375 -8.613281 -0.140625 -8.5625 C 0.203125 -8.507812 0.535156 -8.398438 0.859375 -8.234375 C 1.191406 -8.078125 1.503906 -7.882812 1.796875 -7.65625 C 2.085938 -7.414062 2.335938 -7.15625 2.546875 -6.875 C 2.765625 -6.59375 2.929688 -6.285156 3.046875 -5.953125 C 3.171875 -5.628906 3.234375 -5.296875 3.234375 -4.953125 C 3.242188 -4.609375 3.1875 -4.253906 3.0625 -3.890625 C 2.9375 -3.535156 2.726562 -3.179688 2.4375 -2.828125 Z M 1.578125 -3.515625 C 1.804688 -3.796875 1.953125 -4.078125 2.015625 -4.359375 C 2.085938 -4.648438 2.082031 -4.925781 2 -5.1875 C 1.925781 -5.457031 1.796875 -5.710938 1.609375 -5.953125 C 1.421875 -6.203125 1.203125 -6.429688 0.953125 -6.640625 C 0.703125 -6.835938 0.441406 -7 0.171875 -7.125 C -0.0976562 -7.257812 -0.367188 -7.335938 -0.640625 -7.359375 C -0.921875 -7.378906 -1.195312 -7.332031 -1.46875 -7.21875 C -1.738281 -7.101562 -1.988281 -6.90625 -2.21875 -6.625 C -2.457031 -6.332031 -2.601562 -6.039062 -2.65625 -5.75 C -2.71875 -5.46875 -2.707031 -5.191406 -2.625 -4.921875 C -2.550781 -4.660156 -2.421875 -4.410156 -2.234375 -4.171875 C -2.054688 -3.929688 -1.84375 -3.710938 -1.59375 -3.515625 C -1.34375 -3.304688 -1.078125 -3.132812 -0.796875 -3 C -0.523438 -2.863281 -0.253906 -2.785156 0.015625 -2.765625 C 0.296875 -2.742188 0.566406 -2.789062 0.828125 -2.90625 C 1.085938 -3.019531 1.335938 -3.222656 1.578125 -3.515625 Z M 1.578125 -3.515625 "/></g></g></g><g fill="#f0efec" fill-opacity="1"><g transform="translate(130.463834, 149.237411)"><g><path d="M 2.671875 -2.609375 C 2.359375 -2.285156 2.03125 -2.039062 1.6875 -1.875 C 1.351562 -1.707031 1.015625 -1.601562 0.671875 -1.5625 C 0.328125 -1.519531 -0.0078125 -1.539062 -0.34375 -1.625 C -0.6875 -1.707031 -1.015625 -1.84375 -1.328125 -2.03125 C -1.640625 -2.21875 -1.925781 -2.441406 -2.1875 -2.703125 C -2.457031 -2.960938 -2.691406 -3.242188 -2.890625 -3.546875 C -3.085938 -3.859375 -3.226562 -4.179688 -3.3125 -4.515625 C -3.40625 -4.847656 -3.4375 -5.1875 -3.40625 -5.53125 C -3.382812 -5.875 -3.296875 -6.21875 -3.140625 -6.5625 C -2.984375 -6.90625 -2.742188 -7.238281 -2.421875 -7.5625 C -2.109375 -7.894531 -1.757812 -8.144531 -1.375 -8.3125 C -1 -8.488281 -0.597656 -8.578125 -0.171875 -8.578125 C 0.242188 -8.585938 0.664062 -8.507812 1.09375 -8.34375 L 0.625 -7.1875 C 0.34375 -7.351562 0.078125 -7.429688 -0.171875 -7.421875 C -0.429688 -7.421875 -0.675781 -7.359375 -0.90625 -7.234375 C -1.144531 -7.109375 -1.367188 -6.9375 -1.578125 -6.71875 C -1.828125 -6.457031 -2 -6.191406 -2.09375 -5.921875 C -2.195312 -5.660156 -2.226562 -5.394531 -2.1875 -5.125 C -2.15625 -4.851562 -2.066406 -4.585938 -1.921875 -4.328125 C -1.785156 -4.066406 -1.597656 -3.820312 -1.359375 -3.59375 C -1.117188 -3.351562 -0.863281 -3.160156 -0.59375 -3.015625 C -0.332031 -2.878906 -0.0664062 -2.796875 0.203125 -2.765625 C 0.484375 -2.742188 0.757812 -2.78125 1.03125 -2.875 C 1.3125 -2.976562 1.582031 -3.160156 1.84375 -3.421875 C 2.15625 -3.742188 2.34375 -4.082031 2.40625 -4.4375 C 2.476562 -4.800781 2.421875 -5.207031 2.234375 -5.65625 L 3.359375 -6.15625 C 3.546875 -5.726562 3.640625 -5.300781 3.640625 -4.875 C 3.648438 -4.457031 3.566406 -4.054688 3.390625 -3.671875 C 3.222656 -3.296875 2.984375 -2.941406 2.671875 -2.609375 Z M 2.671875 -2.609375 "/></g></g></g><g fill="#f0efec" fill-opacity="1"><g transform="translate(135.148928, 144.404348)"><g><path d="M 0.671875 -0.578125 L -3.828125 -5.8125 L -2.890625 -6.625 L -0.546875 -3.890625 L -0.34375 -8.8125 L 0.921875 -9.90625 L 0.671875 -5.953125 L 5.453125 -4.703125 L 4.28125 -3.6875 L 0.546875 -4.765625 L 0.4375 -2.75 L 1.609375 -1.390625 Z M 0.671875 -0.578125 "/></g></g></g><g fill="#f0efec" fill-opacity="1"><g transform="translate(140.496866, 139.82694)"><g><path d="M 1.828125 -1.34375 L -1.59375 -6.03125 L -3.34375 -4.75 L -4 -5.640625 L 0.484375 -8.90625 L 1.140625 -8.015625 L -0.59375 -6.75 L 2.828125 -2.0625 Z M 1.828125 -1.34375 "/></g></g></g><g fill="#f0efec" fill-opacity="1"><g transform="translate(144.95379, 136.543361)"><g><path d="M 0.046875 -0.03125 L -1.234375 -7.359375 L -0.453125 -7.84375 L 5.53125 -3.421875 L 4.375 -2.71875 L 3.125 -3.703125 L 0.875 -2.3125 L 1.1875 -0.734375 Z M 0.65625 -3.421875 L 2.234375 -4.390625 L 0.125 -6.046875 Z M 0.65625 -3.421875 "/></g></g></g><g fill="#f0efec" fill-opacity="1"><g transform="translate(150.399097, 133.221624)"><g><path d="M 0.78125 -0.421875 L -2.5 -6.5 L -1.40625 -7.09375 L 1.875 -1.015625 Z M 0.78125 -0.421875 "/></g></g></g><g fill="#f0efec" fill-opacity="1"><g transform="translate(152.904939, 131.829165)"><g><path d="M 0.796875 -0.390625 L -2.1875 -6.625 L -1.0625 -7.15625 L 1.421875 -1.984375 L 4.078125 -3.25 L 4.578125 -2.1875 Z M 0.796875 -0.390625 "/></g></g></g><g fill="#f0efec" fill-opacity="1"><g transform="translate(157.472025, 129.678342)"><g/></g></g><g fill="#f0efec" fill-opacity="1"><g transform="translate(159.509032, 128.741612)"><g><path d="M 3.546875 -1.15625 C 3.128906 -1.007812 2.726562 -0.9375 2.34375 -0.9375 C 1.96875 -0.9375 1.617188 -0.992188 1.296875 -1.109375 C 0.972656 -1.222656 0.675781 -1.390625 0.40625 -1.609375 C 0.144531 -1.828125 -0.0820312 -2.085938 -0.28125 -2.390625 C -0.488281 -2.703125 -0.65625 -3.035156 -0.78125 -3.390625 C -0.90625 -3.742188 -0.984375 -4.097656 -1.015625 -4.453125 C -1.054688 -4.816406 -1.039062 -5.164062 -0.96875 -5.5 C -0.90625 -5.84375 -0.785156 -6.160156 -0.609375 -6.453125 C -0.441406 -6.753906 -0.210938 -7.023438 0.078125 -7.265625 C 0.378906 -7.503906 0.742188 -7.703125 1.171875 -7.859375 C 1.609375 -8.015625 2.03125 -8.085938 2.4375 -8.078125 C 2.84375 -8.066406 3.234375 -7.96875 3.609375 -7.78125 C 3.992188 -7.601562 4.347656 -7.34375 4.671875 -7 L 3.734375 -6.1875 C 3.554688 -6.4375 3.347656 -6.613281 3.109375 -6.71875 C 2.878906 -6.832031 2.632812 -6.882812 2.375 -6.875 C 2.113281 -6.875 1.835938 -6.828125 1.546875 -6.734375 C 1.203125 -6.609375 0.925781 -6.445312 0.71875 -6.25 C 0.519531 -6.050781 0.375 -5.820312 0.28125 -5.5625 C 0.195312 -5.300781 0.160156 -5.023438 0.171875 -4.734375 C 0.191406 -4.441406 0.253906 -4.144531 0.359375 -3.84375 C 0.472656 -3.519531 0.617188 -3.234375 0.796875 -2.984375 C 0.972656 -2.734375 1.175781 -2.535156 1.40625 -2.390625 C 1.644531 -2.242188 1.910156 -2.15625 2.203125 -2.125 C 2.492188 -2.09375 2.8125 -2.140625 3.15625 -2.265625 C 3.582031 -2.410156 3.90625 -2.628906 4.125 -2.921875 C 4.34375 -3.210938 4.460938 -3.601562 4.484375 -4.09375 L 5.734375 -4.046875 C 5.703125 -3.578125 5.59375 -3.15625 5.40625 -2.78125 C 5.226562 -2.40625 4.984375 -2.078125 4.671875 -1.796875 C 4.359375 -1.523438 3.984375 -1.3125 3.546875 -1.15625 Z M 3.546875 -1.15625 "/></g></g></g><g fill="#f0efec" fill-opacity="1"><g transform="translate(165.84138, 126.46751)"><g><path d="M 3.640625 -0.84375 C 3.203125 -0.726562 2.789062 -0.6875 2.40625 -0.71875 C 2.019531 -0.75 1.671875 -0.835938 1.359375 -0.984375 C 1.054688 -1.128906 0.78125 -1.328125 0.53125 -1.578125 C 0.289062 -1.828125 0.0859375 -2.109375 -0.078125 -2.421875 C -0.242188 -2.742188 -0.375 -3.085938 -0.46875 -3.453125 C -0.5625 -3.816406 -0.609375 -4.175781 -0.609375 -4.53125 C -0.617188 -4.894531 -0.578125 -5.242188 -0.484375 -5.578125 C -0.398438 -5.910156 -0.253906 -6.21875 -0.046875 -6.5 C 0.148438 -6.78125 0.40625 -7.023438 0.71875 -7.234375 C 1.039062 -7.441406 1.421875 -7.601562 1.859375 -7.71875 C 2.304688 -7.832031 2.71875 -7.875 3.09375 -7.84375 C 3.476562 -7.8125 3.820312 -7.722656 4.125 -7.578125 C 4.425781 -7.429688 4.703125 -7.234375 4.953125 -6.984375 C 5.203125 -6.734375 5.410156 -6.445312 5.578125 -6.125 C 5.753906 -5.8125 5.890625 -5.472656 5.984375 -5.109375 C 6.078125 -4.742188 6.125 -4.378906 6.125 -4.015625 C 6.125 -3.660156 6.078125 -3.316406 5.984375 -2.984375 C 5.890625 -2.648438 5.742188 -2.34375 5.546875 -2.0625 C 5.347656 -1.78125 5.09375 -1.535156 4.78125 -1.328125 C 4.46875 -1.117188 4.085938 -0.957031 3.640625 -0.84375 Z M 3.359375 -1.90625 C 3.710938 -2 4 -2.140625 4.21875 -2.328125 C 4.445312 -2.515625 4.609375 -2.738281 4.703125 -3 C 4.796875 -3.269531 4.835938 -3.554688 4.828125 -3.859375 C 4.816406 -4.160156 4.773438 -4.46875 4.703125 -4.78125 C 4.617188 -5.09375 4.503906 -5.378906 4.359375 -5.640625 C 4.222656 -5.910156 4.050781 -6.132812 3.84375 -6.3125 C 3.632812 -6.5 3.382812 -6.625 3.09375 -6.6875 C 2.800781 -6.757812 2.476562 -6.75 2.125 -6.65625 C 1.769531 -6.5625 1.484375 -6.414062 1.265625 -6.21875 C 1.054688 -6.03125 0.898438 -5.800781 0.796875 -5.53125 C 0.703125 -5.269531 0.65625 -4.988281 0.65625 -4.6875 C 0.664062 -4.382812 0.710938 -4.078125 0.796875 -3.765625 C 0.867188 -3.453125 0.976562 -3.160156 1.125 -2.890625 C 1.269531 -2.628906 1.445312 -2.40625 1.65625 -2.21875 C 1.875 -2.039062 2.125 -1.921875 2.40625 -1.859375 C 2.6875 -1.796875 3.003906 -1.8125 3.359375 -1.90625 Z M 3.359375 -1.90625 "/></g></g></g><g fill="#f0efec" fill-opacity="1"><g transform="translate(172.825435, 124.679608)"><g><path d="M 0.875 -0.15625 L -0.28125 -6.96875 L 1.921875 -7.34375 C 2.242188 -7.394531 2.550781 -7.394531 2.84375 -7.34375 C 3.144531 -7.300781 3.414062 -7.210938 3.65625 -7.078125 C 3.894531 -6.941406 4.097656 -6.757812 4.265625 -6.53125 C 4.441406 -6.3125 4.5625 -6.046875 4.625 -5.734375 C 4.664062 -5.441406 4.644531 -5.164062 4.5625 -4.90625 C 4.488281 -4.65625 4.367188 -4.425781 4.203125 -4.21875 C 4.035156 -4.019531 3.828125 -3.859375 3.578125 -3.734375 L 5.984375 -1.015625 L 4.59375 -0.78125 L 2.40625 -3.40625 L 2.03125 -3.34375 L 1.59375 -3.265625 L 2.09375 -0.359375 Z M 1.4375 -4.25 L 2.515625 -4.4375 C 2.835938 -4.507812 3.078125 -4.640625 3.234375 -4.828125 C 3.390625 -5.023438 3.445312 -5.25 3.40625 -5.5 C 3.351562 -5.78125 3.210938 -5.988281 2.984375 -6.125 C 2.753906 -6.257812 2.460938 -6.300781 2.109375 -6.25 L 1.140625 -6.078125 Z M 1.4375 -4.25 "/></g></g></g><g fill="#f0efec" fill-opacity="1"><g transform="translate(178.684645, 123.652114)"><g><path d="M 4.390625 -7.3125 L 5.578125 -7.421875 L 6.1875 -0.546875 L 4.953125 -0.4375 L 1.640625 -5.015625 L 2.0625 -0.1875 L 0.890625 -0.078125 L 0.28125 -6.953125 L 1.5 -7.0625 L 4.8125 -2.5 Z M 4.390625 -7.3125 "/></g></g></g><g fill="#f0efec" fill-opacity="1"><g transform="translate(185.516086, 123.064553)"><g><path d="M 0.890625 0 L 0.84375 -6.90625 L 5.4375 -6.9375 L 5.453125 -5.796875 L 2.09375 -5.78125 L 2.09375 -4.03125 L 5.21875 -4.046875 L 5.234375 -2.90625 L 2.109375 -2.890625 L 2.125 -1.1875 L 5.484375 -1.203125 L 5.484375 -0.03125 Z M 0.890625 0 "/></g></g></g><g fill="#f0efec" fill-opacity="1"><g transform="translate(191.369143, 123.014969)"><g><path d="M 0.890625 0.0625 L 1.359375 -6.828125 L 3.59375 -6.671875 C 3.90625 -6.648438 4.203125 -6.582031 4.484375 -6.46875 C 4.765625 -6.351562 5.007812 -6.203125 5.21875 -6.015625 C 5.425781 -5.828125 5.585938 -5.601562 5.703125 -5.34375 C 5.816406 -5.09375 5.859375 -4.804688 5.828125 -4.484375 C 5.816406 -4.191406 5.738281 -3.925781 5.59375 -3.6875 C 5.457031 -3.457031 5.28125 -3.265625 5.0625 -3.109375 C 4.851562 -2.960938 4.617188 -2.859375 4.359375 -2.796875 L 6.0625 0.421875 L 4.640625 0.328125 L 3.15625 -2.75 L 2.765625 -2.78125 L 2.328125 -2.8125 L 2.125 0.140625 Z M 2.40625 -3.796875 L 3.5 -3.71875 C 3.820312 -3.71875 4.082031 -3.789062 4.28125 -3.9375 C 4.476562 -4.082031 4.582031 -4.28125 4.59375 -4.53125 C 4.613281 -4.820312 4.523438 -5.0625 4.328125 -5.25 C 4.140625 -5.4375 3.875 -5.539062 3.53125 -5.5625 L 2.546875 -5.640625 Z M 2.40625 -3.796875 "/></g></g></g><g fill="#f0efec" fill-opacity="1"><g transform="translate(139.292148, 230.759046)"><g><path d="M 3.59375 -9.796875 L 3.59375 -6.1875 L 9.578125 -6.1875 L 9.578125 -4.296875 L 3.59375 -4.296875 L 3.59375 0 L 1.140625 0 L 1.140625 -11.703125 L 9.765625 -11.703125 L 9.765625 -9.796875 Z M 3.59375 -9.796875 "/></g></g></g><g fill="#f0efec" fill-opacity="1"><g transform="translate(149.671652, 230.759046)"><g><path d="M 9.40625 0 L 8.375 -2.984375 L 3.90625 -2.984375 L 2.875 0 L 0.421875 0 L 4.6875 -11.703125 L 7.578125 -11.703125 L 11.828125 0 Z M 6.140625 -9.890625 L 6.078125 -9.71875 C 6.023438 -9.507812 5.957031 -9.28125 5.875 -9.03125 C 5.800781 -8.78125 5.328125 -7.378906 4.453125 -4.828125 L 7.8125 -4.828125 L 6.671875 -8.1875 L 6.3125 -9.328125 Z M 6.140625 -9.890625 "/></g></g></g><g fill="#f0efec" fill-opacity="1"><g transform="translate(161.942865, 230.759046)"><g><path d="M 6 0.171875 C 4.394531 0.171875 3.160156 -0.21875 2.296875 -1 C 1.441406 -1.789062 1.015625 -2.921875 1.015625 -4.390625 L 1.015625 -11.703125 L 3.46875 -11.703125 L 3.46875 -4.578125 C 3.46875 -3.648438 3.6875 -2.945312 4.125 -2.46875 C 4.570312 -1.988281 5.21875 -1.75 6.0625 -1.75 C 6.9375 -1.75 7.609375 -2 8.078125 -2.5 C 8.554688 -3 8.796875 -3.71875 8.796875 -4.65625 L 8.796875 -11.703125 L 11.234375 -11.703125 L 11.234375 -4.5 C 11.234375 -3.019531 10.773438 -1.867188 9.859375 -1.046875 C 8.941406 -0.234375 7.65625 0.171875 6 0.171875 Z M 6 0.171875 "/></g></g></g><g fill="#f0efec" fill-opacity="1"><g transform="translate(174.214078, 230.759046)"><g><path d="M 6.6875 -1.75 C 7.320312 -1.75 7.9375 -1.84375 8.53125 -2.03125 C 9.132812 -2.21875 9.597656 -2.453125 9.921875 -2.734375 L 9.921875 -4.359375 L 7.078125 -4.359375 L 7.078125 -6.171875 L 12.171875 -6.171875 L 12.171875 -1.875 C 11.546875 -1.226562 10.738281 -0.722656 9.75 -0.359375 C 8.757812 -0.00390625 7.71875 0.171875 6.625 0.171875 C 4.71875 0.171875 3.253906 -0.351562 2.234375 -1.40625 C 1.210938 -2.46875 0.703125 -3.96875 0.703125 -5.90625 C 0.703125 -7.832031 1.210938 -9.304688 2.234375 -10.328125 C 3.265625 -11.359375 4.75 -11.875 6.6875 -11.875 C 9.425781 -11.875 11.171875 -10.859375 11.921875 -8.828125 L 9.65625 -8.140625 C 9.414062 -8.734375 9.035156 -9.179688 8.515625 -9.484375 C 7.992188 -9.785156 7.382812 -9.9375 6.6875 -9.9375 C 5.53125 -9.9375 4.648438 -9.585938 4.046875 -8.890625 C 3.453125 -8.203125 3.15625 -7.207031 3.15625 -5.90625 C 3.15625 -4.582031 3.460938 -3.554688 4.078125 -2.828125 C 4.703125 -2.109375 5.570312 -1.75 6.6875 -1.75 Z M 6.6875 -1.75 "/></g></g></g><g fill="#f0efec" fill-opacity="1"><g transform="translate(187.431144, 230.759046)"><g><path d="M 1.140625 0 L 1.140625 -11.703125 L 10.328125 -11.703125 L 10.328125 -9.796875 L 3.59375 -9.796875 L 3.59375 -6.859375 L 9.828125 -6.859375 L 9.828125 -4.96875 L 3.59375 -4.96875 L 3.59375 -1.890625 L 10.671875 -1.890625 L 10.671875 0 Z M 1.140625 0 "/></g></g></g><g fill="#f0efec" fill-opacity="1"><g transform="translate(198.7648, 230.759046)"><g><path d="M 6.421875 -9.796875 L 6.421875 0 L 3.96875 0 L 3.96875 -9.796875 L 0.1875 -9.796875 L 0.1875 -11.703125 L 10.203125 -11.703125 L 10.203125 -9.796875 Z M 6.421875 -9.796875 "/></g></g></g></svg>